<?xml version="1.0" encoding="UTF-8" standalone="no"?>
<!-- Created with Inkscape (http://www.inkscape.org/) -->
<svg
   xmlns:dc="http://purl.org/dc/elements/1.1/"
   xmlns:cc="http://creativecommons.org/ns#"
   xmlns:rdf="http://www.w3.org/1999/02/22-rdf-syntax-ns#"
   xmlns:svg="http://www.w3.org/2000/svg"
   xmlns="http://www.w3.org/2000/svg"
   xmlns:xlink="http://www.w3.org/1999/xlink"
   xmlns:sodipodi="http://sodipodi.sourceforge.net/DTD/sodipodi-0.dtd"
   xmlns:inkscape="http://www.inkscape.org/namespaces/inkscape"
   width="64px"
   height="64px"
   id="svg3258"
   sodipodi:version="0.32"
   inkscape:version="0.46"
   sodipodi:docname="OnionButterfly-Splice.svg"
   inkscape:output_extension="org.inkscape.output.svg.inkscape">
  <defs
     id="defs3260">
    <inkscape:perspective
       sodipodi:type="inkscape:persp3d"
       inkscape:vp_x="0 : 32 : 1"
       inkscape:vp_y="0 : 1000 : 0"
       inkscape:vp_z="64 : 32 : 1"
       inkscape:persp3d-origin="32 : 21.333333 : 1"
       id="perspective3266" />
    <inkscape:perspective
       id="perspective3275"
       inkscape:persp3d-origin="372.04724 : 350.78739 : 1"
       inkscape:vp_z="744.09448 : 526.18109 : 1"
       inkscape:vp_y="0 : 1000 : 0"
       inkscape:vp_x="0 : 526.18109 : 1"
       sodipodi:type="inkscape:persp3d" />
    <inkscape:perspective
       id="perspective3288"
       inkscape:persp3d-origin="372.04724 : 350.78739 : 1"
       inkscape:vp_z="744.09448 : 526.18109 : 1"
       inkscape:vp_y="0 : 1000 : 0"
       inkscape:vp_x="0 : 526.18109 : 1"
       sodipodi:type="inkscape:persp3d" />
    <inkscape:perspective
       id="perspective3301"
       inkscape:persp3d-origin="372.04724 : 350.78739 : 1"
       inkscape:vp_z="744.09448 : 526.18109 : 1"
       inkscape:vp_y="0 : 1000 : 0"
       inkscape:vp_x="0 : 526.18109 : 1"
       sodipodi:type="inkscape:persp3d" />
  </defs>
  <sodipodi:namedview
     id="base"
     pagecolor="#ffffff"
     bordercolor="#666666"
     borderopacity="1.0"
     inkscape:pageopacity="0.0"
     inkscape:pageshadow="2"
     inkscape:zoom="5.5"
     inkscape:cx="24.13151"
     inkscape:cy="50.590599"
     inkscape:current-layer="layer1"
     showgrid="true"
     inkscape:document-units="px"
     inkscape:grid-bbox="true"
     inkscape:window-width="916"
     inkscape:window-height="730"
     inkscape:window-x="0"
     inkscape:window-y="116" />
  <metadata
     id="metadata3263">
    <rdf:RDF>
      <cc:Work
         rdf:about="">
        <dc:format>image/svg+xml</dc:format>
        <dc:type
           rdf:resource="http://purl.org/dc/dcmitype/StillImage" />
      </cc:Work>
    </rdf:RDF>
  </metadata>
  <g
     id="layer1"
     inkscape:label="Layer 1"
     inkscape:groupmode="layer">
    <image
       y="-9.1563997"
       x="-59.909893"
       id="image3303"
       height="54.454544"
       width="55.94136"
       sodipodi:absref="/home/andrewb/Desktop/Onion.png"
       xlink:href="/home/andrewb/Desktop/Onion.png" />
    <g
       id="g3994"
       transform="translate(1.2856488,1.932258)">
      <path
         style="fill:#ecb689"
         d="M 18.335711,59.281925 C 12.617319,57.68499 7.1623629,54.27572 4.0199064,49.135627 C 1.8622305,45.059032 0.5039148,40.361967 0.88974797,35.716725 C 1.4754672,31.461681 3.3633029,27.475245 5.993649,24.099243 C 6.7524427,23.290758 7.6930432,21.702071 5.9807725,22.926451 C 5.25085,23.66843 3.3055431,25.576297 4.2569878,23.244173 C 1.9717759,22.022263 2.4341098,19.164152 2.4666916,17.015493 C 2.4469703,14.712067 -0.65763926,11.973625 2.6171377,10.342734 C 4.7128449,9.0356981 7.1416815,10.24697 8.8942547,11.553821 C 11.028499,13.682985 14.034119,12.947797 16.610934,13.723514 C 16.397781,14.591674 11.756412,14.4136 14.733704,15.324423 C 17.385355,16.313242 20.009392,15.344195 22.640805,14.897744 C 29.754467,13.73166 36.990869,17.323459 41.46111,22.754116 C 44.677079,26.644781 46.397019,31.828232 45.679106,36.864572 C 45.805559,39.037167 45.085065,41.751048 45.186969,43.479437 C 47.848314,44.862381 41.790384,48.17777 45.807611,48.693425 C 46.768937,50.266592 45.348466,54.43146 48.691415,53.583503 C 50.158305,53.872378 48.445357,55.086493 47.62742,54.113335 C 45.535036,53.137787 44.592904,55.645698 47.024268,55.894255 C 45.643098,56.687264 46.06365,57.717515 47.696907,57.13716 C 48.747213,56.736935 50.410141,57.917881 48.356368,57.945702 C 45.787658,58.688986 43.501076,54.248004 41.465142,57.564765 C 40.577525,58.147488 38.208942,58.269178 40.653071,58.577694 C 40.62511,59.922195 36.883914,58.475261 35.488768,58.723801 C 32.506432,59.423917 29.339002,59.075386 26.268446,59.26139 C 23.624505,59.306437 20.979821,59.322336 18.335711,59.281925 z M 44.198929,57.894646 C 43.067701,55.615982 46.080025,58.309865 44.198929,57.894646 L 44.198929,57.894646 z"
         id="path4000" />
      <path
         style="fill:#e8a069"
         d="M 18.350657,59.016438 C 15.249451,57.640494 11.846337,56.657178 9.321904,54.274661 C 7.6341823,53.967938 7.516198,51.234577 9.5399784,52.369905 C 12.680372,54.734567 16.343043,57.435021 20.521907,56.672609 C 22.432646,56.753451 25.416059,56.898155 26.114458,54.699454 C 25.618861,52.690162 23.280195,51.493866 23.426677,49.167257 C 23.179656,47.041598 23.493364,44.439712 21.65128,42.937162 C 21.199198,41.394003 22.999065,43.569274 22.713052,41.997693 C 23.445445,40.466473 22.25486,37.079585 22.630301,36.797856 C 24.626932,38.902998 24.914188,34.648209 26.475889,33.832369 C 26.862527,32.031358 25.657823,30.367213 25.573947,28.445272 C 25.173386,27.275998 23.930429,25.626138 25.597112,27.320836 C 28.000252,29.58248 26.012645,25.221739 24.838108,24.805137 C 23.95275,23.532771 21.972076,23.162499 23.502861,24.992493 C 23.996458,26.159717 21.539217,23.533836 20.983749,23.31686 C 18.443603,20.84109 15.477756,23.542552 14.23432,25.947697 C 11.638041,26.930108 13.186586,29.810741 12.903291,31.523209 C 11.62015,29.552295 10.514258,30.913025 10.946642,32.735631 C 10.882492,34.118844 9.2445946,32.623159 9.5542659,34.368677 C 9.2601361,35.84435 10.178567,38.809483 9.581538,39.330737 C 9.3078346,37.533837 7.6184194,35.715769 7.1266796,37.559619 C 5.6191899,35.735555 6.9611304,42.590859 5.9114591,39.417229 C 5.7247813,38.374511 4.9729265,36.993513 5.2008467,38.870785 C 5.4368913,40.533469 3.7200948,39.743959 4.4136449,41.51316 C 4.586836,42.463992 4.8619407,45.23524 3.9918322,42.802568 C 2.7128174,39.419263 1.7745517,35.411348 3.5543356,32.026421 C 3.3269395,28.385961 5.5034582,25.215972 7.5595973,22.417813 C 5.9659941,22.555994 3.5446734,24.024652 3.3006543,21.325359 C 1.9373628,18.518365 4.6772069,15.137245 2.2186719,12.585266 C 1.7531659,9.1126369 6.5956886,10.124026 8.3341127,11.539799 C 9.7684915,12.879628 10.473786,14.086771 12.43276,14.41564 C 13.52869,15.889251 16.347997,15.46064 15.481186,17.550196 C 17.508567,18.507907 19.76902,16.798325 21.818479,16.355281 C 25.432778,15.3395 28.740733,17.750144 31.692685,19.488868 C 35.019954,21.498242 38.814621,23.812527 39.86234,27.827122 C 40.499258,30.752083 40.096532,33.784826 40.100204,36.736955 C 39.349492,39.838794 37.072752,42.473568 37.013806,45.75808 C 35.400057,47.084926 35.278764,51.671483 38.03248,51.263177 C 40.000185,50.198702 41.5422,48.561343 42.939792,46.820427 C 43.641405,45.429399 45.432345,45.61911 44.077115,47.163862 C 43.196548,48.102871 42.649942,49.874217 44.372595,48.403993 C 47.416906,48.907294 45.373011,52.57524 45.237011,54.52239 C 45.103159,55.541358 46.579624,56.85836 44.709491,55.8223 C 43.246981,55.500222 43.473674,53.320399 43.032598,53.104347 C 41.980523,53.478348 41.864172,55.418829 42.69617,54.946836 C 41.97489,56.039961 37.349556,56.301767 40.647994,56.241427 C 43.308606,57.413158 38.132812,57.599768 37.940533,58.723198 C 33.94398,58.402152 29.965219,59.292111 25.963701,59.041183 C 23.426999,59.094619 20.883494,59.2416 18.350657,59.016438 z M 44.971893,50.508011 C 44.269692,49.080079 44.269575,52.0431 44.971893,50.508011 z M 27.580503,26.458761 C 27.649637,24.861068 24.914532,24.902556 26.676299,26.141666 L 27.073283,26.311186 L 27.580503,26.458761 L 27.580503,26.458761 z M 24.097925,22.597038 C 23.44635,21.627111 22.902395,23.560962 24.097925,22.597038 z M 8.5719118,19.442446 C 6.9836147,19.10805 8.2639413,21.782403 8.569896,19.457365 L 8.5719118,19.442446 z M 3.5378489,12.580293 C 3.5769961,11.024777 1.8217728,13.191778 3.5378489,12.580293 L 3.5378489,12.580293 z M 27.269608,16.858007 C 27.635334,15.475167 28.713384,17.770002 27.269608,16.858007 z"
         id="path3998" />
      <path
         style="fill:#a96337"
         d="M 19.013445,59.03318 C 16.73009,57.92789 21.097695,57.924242 21.986659,57.872964 C 25.103073,57.754425 28.890091,57.770228 30.931079,55.00678 C 31.521696,54.36068 33.259092,53.781898 32.427075,53.32275 C 36.410274,53.892113 39.941404,51.194341 42.245752,48.214559 C 42.815337,47.491268 45.303091,45.313797 43.622202,47.328355 C 42.452665,48.306035 42.134068,50.30562 44.070027,48.907223 C 46.193248,47.755101 45.879037,51.045266 45.044875,52.121922 C 45.493894,54.337614 43.481302,51.15602 44.025731,53.222498 C 44.066454,53.602887 43.039026,52.088948 42.66783,53.462054 C 42.019548,54.812239 39.798476,56.359844 39.163965,56.286814 C 40.193278,56.195303 42.820481,57.036715 40.330131,57.291037 C 38.906351,57.127739 37.452241,58.215454 37.304993,58.545941 C 34.247312,58.24223 31.23765,59.377664 28.173538,58.973003 C 25.120927,59.024864 22.064822,59.242474 19.013445,59.03318 z M 44.89719,50.974911 C 46.092384,47.822337 42.058454,51.716859 44.89719,50.974911 z M 44.901085,55.910786 C 43.69902,55.639351 43.384025,53.870257 44.643068,54.515102 C 45.328625,54.085591 45.882825,57.402547 44.901085,55.910786 z M 6.5341287,24.344223 C 8.8491357,22.622635 5.9698624,21.827529 4.965253,22.312764 C 3.2111851,22.843011 2.4842731,18.440389 5.1210367,19.011038 C 6.5504438,19.107309 8.9219753,18.089823 7.246026,20.1175 C 8.4589165,22.026057 10.3928,17.236891 7.6448183,18.167135 C 6.0779213,19.119921 6.0831829,17.653209 5.9807004,16.989903 C 4.7337804,16.978699 2.7068593,16.219347 4.8605288,15.267127 C 4.5997745,14.217498 1.8788969,12.312464 4.5545625,13.426561 C 6.5370725,13.292249 6.6408499,9.4688854 8.0653388,11.737872 C 9.8251537,13.631949 11.668305,16.165467 14.572174,15.995446 C 12.017484,16.834424 9.0793002,19.097991 10.390438,21.937327 C 9.6739376,23.371557 8.1428995,24.345136 6.5341287,24.344223 z M 10.994569,16.465244 C 10.250499,15.545823 9.7495872,17.921009 10.994569,16.465244 L 10.994569,16.465244 z M 4.3451581,17.735382 C 5.2590775,16.708959 5.1029507,18.622015 4.3451581,17.735382 z"
         id="path3996" />
    </g>
    <image
       y="6.505548"
       x="74.420982"
       id="image3290"
       height="48.17004"
       width="49.485264"
       sodipodi:absref="/home/andrewb/Desktop/Butterfly.png"
       xlink:href="/home/andrewb/Desktop/Butterfly.png"
       transform="matrix(-0.9817593,-0.190128,-0.190128,0.9817593,0,0)" />
    <g
       id="g4218"
       transform="translate(-6.3636364,17.090909)">
      <path
         style="fill:#4ab0e8;fill-opacity:1"
         d="M 49.28125,9.65625 C 49.338036,9.5690206 49.438778,9.3212125 49.46875,9.3125 C 49.58365,9.2790991 49.845192,9.8478158 50.21875,10.9375 C 50.70807,12.36487 50.91188,12.77836 51.59375,13.59375 C 52.034939,14.121331 52.671432,14.998861 53,15.5625 C 54.310144,17.809968 55.599576,18.89358 58.53125,20.21875 C 59.976517,20.87204 60.444352,21.022352 60.84375,20.90625 C 61.120207,20.825886 61.400612,20.655237 61.46875,20.53125 C 61.584345,20.320904 62.862407,19.888397 63.90625,19.6875 C 64.279434,19.615676 64.453908,19.382784 64.875,18.5 C 65.354914,17.493904 65.428607,17.40863 66,17.3125 C 66.818767,17.174754 66.953625,16.800495 66.59375,15.5625 C 66.281591,14.488652 66.382134,13.962421 67,13.375 C 67.240094,13.146734 67.366374,12.842154 67.34375,12.5625 C 67.227334,11.123386 67.283275,10.819181 67.8125,10.1875 C 68.165502,9.7661581 68.327687,9.4204398 68.28125,9.15625 C 68.088571,8.0602126 68.104352,7.6347432 68.34375,7.09375 C 68.596562,6.522432 68.572112,6.4538149 68.03125,5 L 67.5,3.5 L 66.375,2.84375 C 65.759141,2.470802 65.285016,2.0677792 65.3125,1.96875 C 65.339976,1.8697245 65.617305,1.7191145 65.9375,1.625 C 67.508792,1.1631513 68.081415,0.52300185 68.6875,-1.40625 C 68.932971,-2.1876299 68.909364,-2.3267723 68.5625,-3.1875 C 68.260033,-3.9380508 68.209359,-4.2451329 68.3125,-4.8125 C 68.413254,-5.3667799 68.386002,-5.7351638 68.09375,-6.53125 C 67.78601,-7.3695111 67.731601,-7.6581872 67.875,-8.1875 C 67.970405,-8.5396554 68.007832,-9.0380657 67.9375,-9.28125 C 67.796873,-9.7674186 67.937255,-10.78009 68.15625,-10.84375 C 68.232407,-10.865888 68.420176,-11.319967 68.59375,-11.875 C 68.767326,-12.430032 69.084678,-13.084766 69.28125,-13.3125 C 70.324973,-14.52171 70.285121,-16.75723 69.21875,-17.46875 C 68.343615,-18.052672 67.231203,-18.004592 64.84375,-17.28125 C 59.628016,-15.701001 55.826293,-12.601932 53.03125,-7.625 C 51.811853,-5.4537096 50.917948,-3.2838319 50.4375,-1.40625 C 50.076973,0.0026683024 49.845091,0.33712644 49.65625,-0.3125 C 49.58517,-0.55702229 49.430396,-0.64388192 49.28125,-0.625 L 49.28125,9.65625 z"
         id="path4126" />
      <path
         style="fill:#35648f;fill-opacity:1"
         d="M 49.28125,9.5625 C 49.580057,9.2629336 49.853858,9.476443 50.34375,10.875 C 50.850446,12.321536 51.065712,12.714915 51.75,13.53125 C 52.194272,14.061255 52.827682,14.967611 53.15625,15.53125 C 54.459902,17.76758 55.670619,18.792393 58.53125,20.09375 C 59.510011,20.539006 60.367849,20.895248 60.4375,20.875 C 60.507151,20.854752 60.654868,20.840396 60.78125,20.84375 C 60.907631,20.847102 61.272304,20.571863 61.59375,20.25 C 62.160502,19.682517 62.166332,19.660512 61.71875,19.78125 C 60.789863,20.031822 60.147449,19.857337 58.75,18.90625 C 57.62207,18.138593 57.318189,17.828832 57.0625,17.25 C 56.890393,16.860385 56.455428,16.038597 56.09375,15.4375 C 55.272558,14.072699 54.342598,12.012085 54.375,11.625 C 54.396092,11.373007 54.480618,11.361949 54.96875,11.625 L 55.53125,11.9375 L 55.375,11.28125 C 54.934846,9.3381438 54.751554,8.2858848 54.875,8.25 C 54.951399,8.2277913 55.346357,8.3570077 55.71875,8.53125 C 56.091141,8.7054919 56.510057,8.8237473 56.65625,8.78125 C 56.802445,8.7387525 57.087175,8.7401882 57.28125,8.78125 C 57.650314,8.8593343 57.707301,8.6008816 57.34375,8.5 C 57.043112,8.4165774 56.015467,7.4557135 55.9375,7.1875 C 55.893593,7.0364651 56.031469,6.9163596 56.28125,6.84375 C 56.499498,6.7803081 56.767064,6.5931392 56.90625,6.4375 C 57.125688,6.1921245 57.27117,6.2115884 57.875,6.53125 C 58.692742,6.964155 59.086158,6.7518915 58.46875,6.21875 C 58.251952,6.0315399 57.910617,5.8172695 57.71875,5.75 C 57.385158,5.633039 57.12202,5.2207051 57.34375,5.15625 C 57.402008,5.1393152 57.960838,5.2035747 58.59375,5.3125 C 59.22666,5.421428 59.784295,5.4888192 59.8125,5.4375 C 59.8407,5.3861793 59.645746,5.2027285 59.40625,5.03125 C 58.761714,4.5697612 58.80364,4.3768443 59.5625,4.15625 C 59.93586,4.0477183 60.279874,3.8662326 60.34375,3.75 C 60.423502,3.6048815 60.612631,3.5675663 60.9375,3.59375 C 61.312569,3.6239801 61.420162,3.550874 61.4375,3.34375 C 61.452078,3.1695848 61.681472,3.0351797 62.125,2.90625 C 62.665424,2.749153 63.131676,2.8074749 64.5625,3.21875 C 67.285437,4.0014317 67.092663,3.911236 66.9375,4.59375 C 66.865182,4.9118514 66.865318,5.3766777 66.9375,5.625 C 67.102374,6.1921555 66.925935,6.4098556 66.46875,6.1875 C 65.881838,5.9020551 65.88043,6.0752883 66.46875,6.5625 C 67.13641,7.1154291 67.280108,7.5086669 66.9375,7.84375 C 66.764119,8.0133277 66.698396,8.3436459 66.78125,8.90625 C 66.84796,9.35921 66.849775,9.7499641 66.75,9.78125 C 66.549978,9.8439685 66.166145,11.791532 66.28125,12.1875 C 66.432377,12.70739 66.325485,12.994048 65.875,13.125 C 65.368871,13.272127 65.345316,13.382837 65.78125,13.71875 C 66.04625,13.922948 66.117009,13.910005 66.59375,13.5625 C 67.268412,13.070726 67.309322,12.951226 67.15625,12.0625 C 66.971764,10.991387 67.040929,10.736702 67.625,10.1875 C 68.188279,9.657849 68.305162,9.1160155 68.0625,8.28125 C 67.962655,7.9377981 68.015764,7.5270291 68.21875,7.03125 C 68.448116,6.4710331 68.468964,6.1825442 68.3125,5.90625 C 68.197067,5.7024279 67.931404,5.0941064 67.71875,4.5625 C 67.344951,3.6280686 67.282299,3.5513175 65.875,2.6875 C 64.466088,1.822687 64.403739,1.8175578 63.34375,1.90625 C 62.74141,1.9566491 62.026839,1.9607412 61.75,1.90625 C 61.47316,1.8517557 61.108428,1.8343965 60.96875,1.875 C 60.829071,1.915603 60.752828,1.8524265 60.78125,1.75 C 60.810654,1.6440295 61.570042,1.3509993 62.5625,1.0625 C 64.047969,0.63068777 64.292268,0.52293885 64.15625,0.34375 C 64.043667,0.1954348 64.096398,0.10150571 64.34375,0.03125 C 64.972983,-0.14747017 65.453537,-0.075211605 65.53125,0.1875 C 65.611573,0.45904299 66.895255,0.84003927 67.3125,0.71875 C 67.752057,0.59097494 67.433323,0.16068031 66.84375,0.09375 C 66.527268,0.057826534 66.144784,-0.06781226 65.96875,-0.1875 C 65.664206,-0.39455091 65.683855,-0.40192199 66.53125,-0.53125 C 67.054311,-0.61107845 67.547745,-0.58910616 67.71875,-0.46875 C 67.990412,-0.27754339 67.996375,-0.29249119 68.09375,-0.625 C 68.151142,-0.82100348 68.33945,-1.2684105 68.5,-1.625 C 68.772801,-2.230906 68.764381,-2.3298071 68.40625,-3.1875 C 68.078945,-3.9713318 68.038973,-4.1999507 68.1875,-4.78125 C 68.339258,-5.3752196 68.306904,-5.6093702 67.9375,-6.53125 C 67.579761,-7.4240143 67.557553,-7.6373136 67.71875,-7.96875 C 67.823654,-8.1844451 67.870552,-8.7296174 67.8125,-9.1875 C 67.731841,-9.8237071 67.787853,-10.253745 68.125,-10.96875 C 68.367641,-11.48334 68.606972,-12.067327 68.625,-12.28125 C 68.643025,-12.495173 68.823311,-12.907895 69.0625,-13.1875 C 69.622781,-13.842444 69.903794,-14.693038 69.90625,-15.78125 C 69.908059,-16.585097 69.876008,-16.700088 69.46875,-17.09375 C 68.48264,-18.046923 66.3209,-17.884985 63.21875,-16.625 C 58.555107,-14.73079 55.362972,-11.737414 52.75,-6.84375 C 51.601108,-4.6920689 51.130699,-3.5192163 50.59375,-1.5 C 50.35841,-0.61499221 50.113278,0.16207089 50.03125,0.21875 C 49.949224,0.27542865 49.780155,0.14955528 49.65625,-0.0625 C 49.525413,-0.28642206 49.399563,-0.29853508 49.28125,-0.25 L 49.28125,9.5625 z M 58.4375,9 C 58.180224,8.978465 58.164044,9.0336027 58.40625,9.28125 C 58.729593,9.6118568 59.03843,9.5659529 58.9375,9.21875 C 58.899642,9.0885094 58.817562,8.9894448 58.78125,9 C 58.744938,9.0105556 58.601391,9.0137196 58.4375,9 z M 55.75,12.125 C 55.71171,12.13613 55.653423,12.210073 55.625,12.3125 C 55.596578,12.414927 55.658048,12.49548 55.75,12.46875 C 55.841951,12.442021 55.900241,12.336828 55.875,12.25 C 55.849761,12.163172 55.78829,12.11387 55.75,12.125 z M 66.0625,14.875 C 65.868711,14.622753 65.839991,14.642723 65.71875,15.21875 C 65.645,15.569142 65.55308,16.132828 65.53125,16.46875 C 65.496654,17.00111 65.532247,17.082429 65.8125,17.1875 C 66.235881,17.346232 66.321225,17.33809 66.53125,16.90625 C 66.71836,16.521523 66.454197,15.384853 66.0625,14.875 z M 64.34375,16.96875 C 64.284197,17.183354 64.606654,17.582003 64.78125,17.53125 C 64.849496,17.511411 64.894723,17.387713 64.90625,17.25 C 64.931026,16.954047 64.418387,16.699774 64.34375,16.96875 z M 64.71875,17.96875 C 64.665904,17.78695 63.279937,18.480136 62.96875,18.84375 C 62.584327,19.29294 62.632129,19.39629 63.28125,19.5625 C 63.922274,19.726636 64.043587,19.693549 64.28125,19.34375 C 64.475707,19.057539 64.769494,18.143312 64.71875,17.96875 z"
         id="path4129" />
      <path
         style="fill:#294269;fill-opacity:1"
         d="M 65.03409,-10.943182 C 64.947262,-10.917942 64.92394,-10.858161 65.00284,-10.786932 C 65.081739,-10.715703 65.228514,-10.667943 65.31534,-10.693182 C 65.402169,-10.71842 65.39424,-10.809453 65.31534,-10.880682 C 65.236442,-10.951911 65.120916,-10.96842 65.03409,-10.943182 z"
         id="path4067" />
      <path
         style="fill:#294269;fill-opacity:1"
         d="M 62.56534,-11.568182 L 61.97159,-11.411932 C 61.648131,-11.329045 61.343757,-11.170606 61.31534,-11.068182 C 61.257395,-10.859352 61.483603,-10.938924 62.12784,-11.318182 L 62.56534,-11.568182 z"
         id="path4065" />
      <path
         style="fill:#294269;fill-opacity:1"
         d="M 66.75284,-13.349432 C 66.839664,-13.374672 66.933732,-13.260924 66.97159,-13.130682 C 67.009445,-13.000439 66.964665,-12.874672 66.87784,-12.849432 C 66.791016,-12.824193 66.696948,-12.90669 66.65909,-13.036932 C 66.621234,-13.167174 66.666014,-13.324193 66.75284,-13.349432 z"
         id="path4063" />
      <path
         style="fill:#294269;fill-opacity:1"
         d="M 49.28409,9.3068182 C 49.356308,9.2245202 49.457327,9.0239672 49.50284,9.0255682 C 49.630052,9.0300422 49.816511,9.3283872 49.97159,9.7755682 C 50.587651,11.55202 51.294072,12.930429 51.90909,13.588068 C 52.260791,13.964142 52.826187,14.774509 53.19034,15.400568 C 54.471424,17.603028 55.926921,18.891277 58.15909,19.806818 C 58.852375,20.091175 59.449171,20.385946 59.47159,20.463068 C 59.526801,20.652992 60.500462,20.854019 60.87784,20.744318 C 61.045172,20.695675 61.245089,20.499777 61.31534,20.338068 C 61.423334,20.089481 61.35837,20.049561 60.90909,20.088068 C 60.561251,20.11788 60.141959,19.973656 59.69034,19.650568 C 59.310879,19.379102 58.642267,18.96846 58.22159,18.744318 C 57.60963,18.418256 57.360422,18.164583 57.00284,17.463068 C 56.757028,16.980829 56.193717,15.994888 55.75284,15.275568 C 55.074585,14.168952 54.810907,13.542245 54.03409,11.088068 C 53.126689,8.2213392 53.136801,8.1764901 53.53409,8.4318182 C 53.755171,8.5739012 54.053789,8.9829792 54.22159,9.3380682 C 54.743259,10.441981 54.77078,9.5981162 54.25284,8.2443182 C 54.001581,7.5875811 53.868757,7.0151269 53.94034,6.9943182 C 54.011921,6.97351 54.33092,7.1120116 54.65909,7.2755682 L 55.25284,7.5568182 L 54.69034,7.0255682 C 53.8974,6.2741297 53.246149,5.5300541 53.19034,5.3380682 C 53.163879,5.2470469 53.351247,5.1059714 53.62784,5.0255682 C 53.927445,4.9384745 54.250298,4.7005434 54.40909,4.4318182 C 54.648831,4.0261082 54.852689,3.9381554 56.37784,3.4943182 C 57.310441,3.2229185 58.714091,2.9326039 59.53409,2.8380682 C 60.354091,2.7435328 61.06905,2.6283018 61.09659,2.5880682 C 61.21603,2.4135755 60.780924,2.3969504 58.69034,2.4630682 C 57.469983,2.5016641 56.387628,2.4917991 56.28409,2.4630682 C 55.791402,2.3263531 56.13995,2.1311343 57.44034,1.7755682 C 59.083384,1.326311 59.388736,1.0327927 58.59659,0.7130682 C 58.316925,0.6001894 57.985435,0.4984999 57.87784,0.4943182 C 57.770242,0.4901352 57.707936,0.3449286 57.72159,0.1818182 C 57.740058,-0.0388074 57.941812,-0.153146 58.50284,-0.3181818 C 58.917609,-0.4401932 59.334565,-0.6336532 59.44034,-0.7556818 C 59.56855,-0.90359503 59.572364,-0.97981182 59.44034,-0.9431818 C 59.331419,-0.91296137 59.196949,-1.0004407 59.15909,-1.1306818 C 59.108204,-1.305729 59.295657,-1.4266654 59.84659,-1.5994318 C 60.256505,-1.7279767 60.772645,-1.9114806 60.97159,-2.0369318 L 61.31534,-2.2869318 L 60.75284,-2.3806818 C 60.435419,-2.4453935 59.9324,-2.6957916 59.65909,-2.9119318 C 59.193481,-3.2801496 59.193843,-3.3347355 59.31534,-3.7869318 C 59.49414,-4.4524034 60.199643,-5.0846981 61.00284,-5.3181818 C 61.86717,-5.5694356 61.796627,-5.7840195 60.87784,-5.7244318 C 60.352371,-5.6903538 60.136886,-5.7786112 60.03409,-6.0056818 C 59.831148,-6.4539761 60.221845,-7.5890649 60.65909,-7.7869318 C 60.861928,-7.8787224 61.145736,-8.0835 61.28409,-8.2556818 C 61.680094,-8.7485193 63.22669,-9.1183843 64.12784,-8.9431818 C 64.548035,-8.8614871 65.219455,-8.7885809 65.59659,-8.7869318 C 66.395483,-8.783441 67.025071,-8.2696994 66.81534,-7.7869318 C 66.748133,-7.6322303 66.780998,-7.3832429 66.87784,-7.2556818 C 66.974675,-7.1281161 66.986667,-6.8215282 66.90909,-6.5681818 C 66.794361,-6.1934944 66.813532,-6.0386441 67.06534,-5.7244318 C 67.239846,-5.5066753 67.408119,-5.0852494 67.44034,-4.7556818 C 67.516493,-3.9767825 67.795752,-3.9318929 68.06534,-4.6619318 C 68.263015,-5.1972364 68.23803,-5.3811333 67.84659,-6.3806818 C 67.463426,-7.359071 67.444549,-7.5515532 67.62784,-8.0056818 C 67.741904,-8.2882677 67.778514,-8.8692634 67.72159,-9.3181818 C 67.640176,-9.9603237 67.736079,-10.349708 68.12784,-11.161932 C 68.40172,-11.729756 68.598804,-12.296821 68.56534,-12.411932 C 68.531876,-12.527043 68.738881,-12.902687 69.03409,-13.255682 C 69.392397,-13.684118 69.629973,-14.250064 69.75284,-14.911932 C 70.085212,-16.702415 69.545198,-17.504199 67.94034,-17.630682 C 67.012565,-17.7038 66.739888,-17.626112 64.44034,-16.880682 C 62.421054,-16.226101 61.649481,-15.931801 60.53409,-15.255682 C 57.373002,-13.339516 55.151425,-10.979171 53.09659,-7.4119318 C 52.20574,-5.8653978 51.13039,-3.2564106 50.72159,-1.6619318 C 50.552026,-1.0005715 50.344369,-0.2663243 50.28409,-0.0369318 C 50.141716,0.5048715 49.922831,0.5518536 49.59659,0.1193182 C 49.496306,-0.0136403 49.373281,0.0830781 49.28409,0.0568182 L 49.28409,9.3068182 z M 65.87784,-13.849432 C 66.611324,-13.895479 66.651364,-13.649871 65.94034,-13.443182 C 65.442933,-13.29859 65.390507,-13.260128 65.62784,-13.099432 C 65.821726,-12.968155 65.869267,-12.848172 65.78409,-12.693182 C 65.632738,-12.417788 65.288737,-12.510941 65.19034,-12.849432 C 65.129614,-13.058334 65.057674,-13.018486 64.87784,-12.661932 C 64.756037,-12.42044 64.50693,-12.156567 64.31534,-12.099432 C 64.123742,-12.042292 63.888206,-11.904693 63.78409,-11.786932 C 63.63867,-11.62245 63.812717,-11.55768 64.56534,-11.443182 C 65.104169,-11.361212 65.541447,-11.205481 65.53409,-11.130682 C 65.526735,-11.055883 65.694946,-11.025623 65.90909,-11.036932 C 66.55598,-11.071088 66.890457,-9.9319498 66.28409,-9.7556818 C 66.118049,-9.707415 65.450193,-9.7378844 64.81534,-9.7869318 C 64.029703,-9.8476255 63.504818,-9.7945186 63.19034,-9.6306818 C 62.665107,-9.3570446 61.001715,-9.2323513 60.69034,-9.4431818 C 60.576714,-9.5201112 60.428681,-9.7476933 60.34659,-9.9431818 C 60.22569,-10.231104 60.296689,-10.330141 60.69034,-10.568182 C 61.016043,-10.765136 61.101993,-10.937563 61.00284,-11.068182 C 60.899143,-11.204782 61.00543,-11.306891 61.34659,-11.443182 C 61.674534,-11.574194 61.858197,-11.78413 61.90909,-12.068182 C 61.950633,-12.300056 62.040145,-12.590464 62.09659,-12.693182 C 62.222052,-12.921473 65.121073,-13.801927 65.87784,-13.849432 z M 59.53409,-9.5056818 C 59.993479,-9.4084859 59.990877,-8.8952629 59.53409,-8.6931818 C 59.326362,-8.6012832 59.124723,-8.4528859 59.06534,-8.3494318 C 58.945727,-8.14106 58.799991,-8.1033001 58.22159,-8.0994318 C 57.879683,-8.0971464 57.831823,-8.1136387 57.94034,-8.4119318 C 58.118028,-8.9003576 59.117628,-9.5937889 59.53409,-9.5056818 z M 68.19034,-2.9119318 C 67.97835,-2.7666633 68.066519,-2.0799212 68.31534,-1.9431818 C 68.431362,-1.8794255 68.549705,-1.9508242 68.62784,-2.1306818 C 68.776228,-2.4722339 68.43662,-3.0807028 68.19034,-2.9119318 z M 64.31534,2.0880682 C 64.117084,2.1457006 63.746431,2.1881409 63.47159,2.1818182 C 62.709566,2.1642893 61.707247,2.3372784 61.84659,2.4630682 C 61.91475,2.5245968 62.174298,2.574588 62.44034,2.5568182 C 62.706385,2.5390506 63.645447,2.7409395 64.53409,2.9943182 C 66.809649,3.6431403 67.092279,3.6615293 66.03409,3.1193182 C 65.524433,2.8581658 64.996128,2.4833915 64.87784,2.3068182 C 64.737804,2.0977746 64.550053,2.0198393 64.31534,2.0880682 z M 67.28409,4.2130682 L 67.25284,4.8693182 C 67.238997,5.2249832 67.331328,5.6440902 67.44034,5.8068182 C 67.557307,5.9814276 67.584886,6.288876 67.50284,6.5568182 C 67.426374,6.8065325 67.390774,7.1675604 67.44034,7.3380682 C 67.489902,7.5085764 67.470216,7.7637204 67.37784,7.9318182 C 67.285459,8.0999216 67.237748,8.3973802 67.28409,8.5568182 C 67.33044,8.7162532 67.301061,9.1510852 67.22159,9.5255682 C 67.017822,10.485763 67.070007,10.502742 67.72159,9.9943182 C 68.183631,9.6337942 68.228748,9.4071182 68.00284,8.6193182 C 67.855807,8.1065968 67.884005,7.7967025 68.12784,7.2755682 C 68.481823,6.5190214 68.391166,6.083171 67.72159,4.9630682 L 67.28409,4.2130682 z M 52.53409,6.6505682 C 52.855704,7.0412385 53.072895,7.8071155 52.84659,7.7443182 C 52.744163,7.7158959 52.571268,7.3912347 52.47159,7.0255682 C 52.330696,6.5087034 52.357259,6.4357702 52.53409,6.6505682 z M 66.84659,11.619318 C 66.610162,11.688046 66.468692,12.16184 66.56534,12.494318 C 66.618343,12.676654 66.575718,12.924206 66.50284,13.056818 C 66.342954,13.34775 66.490057,13.441814 66.78409,13.244318 C 66.90226,13.164943 67.027836,12.943966 67.09659,12.775568 C 67.234409,12.437999 67.046995,11.561062 66.84659,11.619318 z M 66.06534,15.556818 C 65.894268,15.746319 65.683854,17.078309 65.81534,17.150568 C 66.109197,17.31206 66.532282,16.998223 66.56534,16.588068 C 66.605611,16.088459 66.248222,15.354233 66.06534,15.556818 z M 64.37784,18.369318 C 64.226268,18.348384 63.940144,18.516645 63.50284,18.869318 C 63.083596,19.207431 63.02943,19.280551 63.25284,19.431818 C 63.642082,19.695362 64.244084,19.479025 64.40909,18.994318 C 64.543392,18.599797 64.529412,18.390252 64.37784,18.369318 z"
         id="path4061" />
      <path
         style="fill:#000000"
         d="M 49.28125,9.03125 C 49.43757,8.9160768 49.596927,8.7700245 49.75,8.8125 C 49.847717,8.8396165 50.049214,9.3567299 50.21875,9.9375 C 50.67397,11.496919 51.33638,12.711573 52.1875,13.6875 C 52.603512,14.164515 53.231579,15.055296 53.59375,15.65625 C 53.955919,16.257204 54.428405,16.968081 54.65625,17.25 C 55.338318,18.093944 56.831123,19.124399 58.25,19.71875 C 58.984359,20.026365 59.573649,20.337103 59.59375,20.40625 C 59.637975,20.558388 60.461733,20.686631 60.78125,20.59375 C 60.907403,20.557077 60.993991,20.461828 60.96875,20.375 C 60.943512,20.288173 60.794953,20.231846 60.625,20.28125 C 60.452461,20.331406 60.029107,20.194254 59.6875,19.9375 C 59.351016,19.684595 58.644728,19.243809 58.125,18.96875 C 57.244413,18.502714 57.163689,18.376532 56.6875,17.34375 C 56.406452,16.734194 55.908162,15.877088 55.59375,15.4375 C 55.231905,14.931595 54.743887,13.884112 54.25,12.5625 C 53.820855,11.414129 53.162765,9.7619085 52.8125,8.875 C 52.046511,6.9354318 51.485705,4.9870757 51.65625,4.9375 C 51.724356,4.9177018 51.95261,5.06052 52.1875,5.28125 C 52.77607,5.8343489 52.812293,5.6460588 52.25,4.84375 C 51.991018,4.4742231 51.782972,4.1474794 51.8125,4.09375 C 51.842028,4.0400193 52.3861,3.8237657 53,3.625 C 53.613896,3.4262342 54.112697,3.2214289 54.09375,3.15625 C 54.062069,3.0472642 53.6581,3.0826051 53.375,3.21875 C 53.160579,3.3218683 52.51913,3.125042 52.5625,2.96875 C 52.585826,2.8846917 52.808433,2.6948661 53.0625,2.5625 C 53.645554,2.2587411 53.467333,1.9657463 52.6875,1.9375 C 52.365786,1.9258461 52.053498,1.8586746 52,1.78125 C 51.946503,1.7038272 52.240644,1.251929 52.625,0.78125 C 53.009357,0.31057187 53.321144,-0.095260762 53.3125,-0.125 C 53.303856,-0.15474056 52.880585,-0.01298382 52.40625,0.1875 L 51.5625,0.5625 L 51.5,0 C 51.417298,-0.96490296 52.114294,-2.7888733 53.3125,-4.78125 C 53.946687,-5.8357756 54.436857,-6.8009626 54.40625,-6.90625 C 54.340907,-7.1310335 55.136638,-8.3471918 55.9375,-9.25 C 56.342164,-9.7061785 56.559794,-9.8373558 56.71875,-9.75 C 57.068023,-9.5580568 57.126349,-9.618904 57.28125,-10.46875 C 57.411465,-11.183162 57.556646,-11.411411 58.75,-12.53125 C 60.179192,-13.872399 61.922191,-15.021356 63.03125,-15.34375 C 63.406798,-15.452919 63.833304,-15.661042 63.96875,-15.8125 C 64.159524,-16.02582 64.404191,-16.086316 65.09375,-16.125 C 66.077916,-16.180212 66.652379,-15.974581 66.78125,-15.53125 C 66.842294,-15.321277 66.979089,-15.287163 67.28125,-15.375 C 67.677298,-15.490127 67.698826,-15.469565 67.53125,-15.125 C 67.322351,-14.695488 67.413721,-14.341056 67.75,-14.15625 C 67.936577,-14.053715 67.928113,-13.944502 67.75,-13.59375 C 67.623041,-13.343725 67.498052,-12.931428 67.46875,-12.6875 C 67.439449,-12.443571 67.387416,-12.12269 67.34375,-11.96875 C 67.201738,-11.468121 67.067443,-10.479241 67.125,-10.28125 C 67.15589,-10.17498 67.09882,-9.9584505 67,-9.8125 C 66.885234,-9.6429957 66.919522,-9.2731131 67.0625,-8.78125 C 67.424934,-7.5344626 67.775808,-8.0380921 67.59375,-9.53125 C 67.54397,-9.9394584 67.674138,-10.46549 67.9375,-11 C 68.162789,-11.457235 68.376823,-12.089249 68.4375,-12.40625 C 68.49817,-12.723247 68.690104,-13.053326 68.84375,-13.15625 C 69.314472,-13.471581 69.727795,-14.608579 69.75,-15.625 C 69.769645,-16.524377 69.750092,-16.605477 69.375,-17 C 68.918116,-17.48056 68.146362,-17.610587 66.71875,-17.46875 C 65.403122,-17.338041 62.070839,-16.051273 60.28125,-14.96875 C 58.722879,-14.026092 56.494564,-12.052806 55.25,-10.5 C 53.337319,-8.1136041 51.677209,-4.7522756 50.78125,-1.46875 C 50.243737,0.50112223 49.931025,0.97445603 49.5625,0.34375 C 49.493295,0.22530991 49.357559,0.32120661 49.28125,0.28125 L 49.28125,9.03125 z M 67.53125,-6.59375 C 67.351908,-6.6923042 67.365889,-6.4861509 67.59375,-5.8125 C 67.91318,-4.868168 67.955,-4.8502117 68.03125,-5.125 C 68.121506,-5.4502833 67.770633,-6.4621939 67.53125,-6.59375 z M 56.90625,-3.625 C 56.846324,-3.8311525 56.74235,-3.7836695 56.3125,-3.375 C 56.000224,-3.0781115 55.449374,-2.1450427 55.625,-2.21875 C 55.65899,-2.2330151 55.962479,-2.5404202 56.3125,-2.875 C 56.662524,-3.2095794 56.931007,-3.5398366 56.90625,-3.625 z M 55.15625,-1.75 C 55.026006,-1.7121401 54.903422,-1.6024274 54.875,-1.5 C 54.846576,-1.397573 54.932259,-1.3371405 55.0625,-1.375 C 55.192742,-1.4128609 55.315328,-1.5225735 55.34375,-1.625 C 55.372173,-1.7274265 55.286491,-1.7878604 55.15625,-1.75 z M 67.6875,5.28125 C 67.538434,5.2398892 67.534314,5.3560101 67.6875,5.65625 C 67.812736,5.901708 67.87095,6.3280786 67.8125,6.625 C 67.69399,7.2270551 67.74187,7.294357 68.0625,6.96875 C 68.330242,6.6968538 68.040245,5.3791309 67.6875,5.28125 z M 67.5625,8.25 C 67.499493,8.3198022 67.471431,8.5919491 67.5,8.84375 C 67.528574,9.0955474 67.552063,9.4229118 67.53125,9.59375 C 67.505232,9.8072899 67.562432,9.88919 67.71875,9.84375 C 67.843808,9.8073959 67.958944,9.730961 68,9.65625 C 68.112888,9.450836 67.694262,8.104044 67.5625,8.25 z M 66.84375,12.375 C 66.755362,12.729773 66.896375,13.089178 67.03125,12.84375 C 67.076157,12.762034 67.086474,12.555124 67.03125,12.375 C 66.938545,12.072615 66.919649,12.070339 66.84375,12.375 z M 66.3125,16.0625 C 66.220042,16.052221 66.113197,16.214424 66.0625,16.5625 C 66.010288,16.920981 66.04508,17.019234 66.21875,16.96875 C 66.337842,16.934131 66.424722,16.777663 66.4375,16.625 C 66.466836,16.274549 66.404958,16.072779 66.3125,16.0625 z M 64.21875,18.78125 C 64.058746,18.69332 63.513167,19.11154 63.5625,19.28125 C 63.621592,19.484534 64.213471,19.306758 64.28125,19.0625 C 64.311563,18.953259 64.27756,18.813571 64.21875,18.78125 z"
         id="path4153" />
    </g>
    <g
       id="g4197"
       transform="translate(-14.727273,-7.0909091)">
      <path
         style="fill:#4ab0e8;fill-opacity:1"
         d="M 49.28125,9.65625 L 49.28125,-0.625 C 49.170258,-0.61094834 49.070743,-0.54048615 48.96875,-0.375 C 48.855616,-0.19143568 48.699956,-0.083809173 48.625,-0.125 C 48.550044,-0.16619349 48.250525,-1.0070023 47.96875,-1.96875 C 46.727534,-6.2052535 43.641023,-10.709952 40.1875,-13.34375 C 38.718885,-14.463776 36.152996,-15.760922 34,-16.46875 C 31.774125,-17.20054 30.547117,-17.335386 29.375,-17 C 28.612315,-16.781769 28.421005,-16.685208 28.125,-16.1875 C 27.799586,-15.640344 27.801893,-15.530704 28.125,-14.375 C 28.348717,-13.574803 28.605452,-13.000649 28.84375,-12.75 C 29.045162,-12.538149 29.305529,-11.985242 29.4375,-11.53125 C 29.569471,-11.077259 29.818771,-10.498627 30,-10.25 C 30.2687,-9.8813702 30.308342,-9.6889094 30.25,-9.09375 C 30.21065,-8.6923364 30.295117,-8.0385551 30.40625,-7.65625 C 30.551003,-7.1582864 30.516755,-6.8032459 30.34375,-6.40625 C 30.009365,-5.638936 29.934381,-5.1282349 30.0625,-4.6875 C 30.122544,-4.4809483 30.023666,-3.7393079 29.84375,-3.0625 C 29.559177,-1.9919887 29.542838,-1.7264007 29.78125,-0.90625 C 30.167217,0.42150527 30.858994,1.1857159 32.09375,1.6875 C 32.644581,1.911348 33.163735,2.0875758 33.25,2.0625 C 33.336269,2.0374227 33.410418,2.1115419 33.40625,2.21875 C 33.402081,2.3259603 33.02468,2.6206232 32.59375,2.90625 C 31.311301,3.7562734 30.982038,4.1909158 30.34375,5.75 C 29.841483,6.9768388 29.75559,7.3129427 29.9375,7.625 C 30.481154,8.5576084 30.541702,8.7889197 30.4375,9.53125 C 30.320983,10.361307 30.426242,10.577583 31.09375,11.09375 C 31.485402,11.396603 31.488307,11.455305 31.4375,12.1875 C 31.303984,14.111665 31.295664,14.030097 31.90625,14.4375 C 32.596008,14.897728 32.668359,15.143529 32.40625,16.09375 C 32.117115,17.141954 32.350245,17.803452 33.03125,17.9375 C 33.658157,18.060899 34.293462,18.695747 34.5,19.40625 C 34.67648,20.013357 34.983065,20.191631 35.78125,20.09375 C 36.174482,20.04553 36.711169,20.176104 37.34375,20.5 C 38.660895,21.174408 38.996677,21.162996 40.3125,20.28125 C 40.911339,19.879959 41.542156,19.488834 41.71875,19.4375 C 41.895339,19.386166 42.291258,19.094071 42.59375,18.78125 C 42.896242,18.468431 43.368164,18.111479 43.65625,17.96875 C 44.505261,17.548114 48.112812,12.344892 48.875,10.4375 C 49.037196,10.031603 49.153538,9.8524306 49.28125,9.65625 z"
         id="path3315" />
      <path
         style="fill:#35648f;fill-opacity:1"
         d="M 34.59375,18.4375 C 34.276211,18.529805 34.74892,19.895705 35.125,19.96875 C 35.494283,20.040476 36.847108,19.837803 36.8125,19.71875 C 36.799605,19.674389 36.579204,19.576397 36.3125,19.46875 C 36.045797,19.361103 35.781629,19.171305 35.75,19.0625 C 35.678752,18.817406 34.848153,18.363547 34.59375,18.4375 z"
         id="path4133" />
      <path
         style="fill:#35648f;fill-opacity:1"
         d="M 32.71875,15.8125 C 32.464029,16.00586 32.335804,16.967472 32.5,17.40625 C 32.627035,17.745717 32.973197,17.894086 33.375,17.78125 C 33.576903,17.724549 33.599094,17.543641 33.46875,17.09375 C 33.37439,16.768065 33.242931,16.336718 33.1875,16.125 C 33.064317,15.6545 32.996879,15.601368 32.71875,15.8125 z"
         id="path4131" />
      <path
         style="fill:#35648f;fill-opacity:1"
         d="M 49.28125,9.5625 L 49.28125,-0.25 C 49.261531,-0.24191082 49.238407,-0.29675691 49.21875,-0.28125 C 49.107061,-0.19313847 48.92419,-0.056862414 48.8125,0.03125 C 48.537755,0.24799133 48.358252,-0.091438703 47.5625,-2.53125 C 46.375847,-6.1695815 44.346678,-9.4212078 41.59375,-12 C 39.672618,-13.799609 36.493987,-15.589054 33.65625,-16.46875 C 31.403794,-17.16701 30.304298,-17.297392 29.28125,-17 C 28.296233,-16.713664 27.852319,-15.907661 28.09375,-14.90625 C 28.38099,-13.714827 28.660247,-13.023001 29,-12.75 C 29.195298,-12.593074 29.43758,-12.130984 29.59375,-11.59375 C 29.737931,-11.097759 29.998234,-10.522003 30.15625,-10.3125 C 30.375164,-10.022262 30.434239,-9.7050128 30.40625,-9.03125 C 30.386047,-8.5449084 30.440356,-7.8642425 30.53125,-7.5 C 30.651943,-7.0163488 30.610561,-6.609744 30.375,-6.0625 C 30.197597,-5.6503654 30.077771,-5.1766864 30.125,-5 C 30.259587,-4.4964853 30.166339,-3.4329779 29.90625,-2.65625 C 29.70634,-2.0592366 29.705155,-1.7903732 29.96875,-0.96875 C 30.157332,-0.38094392 30.375492,0.057334633 30.53125,0.125 C 30.673541,0.18681522 30.870587,0.42827919 30.9375,0.65625 C 31.118,1.2712113 32.138817,1.557443 33.4375,1.34375 C 34.208938,1.2168144 34.753037,1.2489337 35.5,1.46875 C 36.056576,1.6325386 36.60176,1.828849 36.6875,1.90625 C 36.773646,1.9840156 36.990276,1.9589887 37.1875,1.84375 C 37.455004,1.6874475 37.569678,1.6846888 37.625,1.875 C 37.719598,2.2004261 37.801963,2.185559 35.875,2.125 L 34.21875,2.09375 L 33.40625,2.625 C 31.912074,3.6067456 31.209629,4.3318414 30.59375,5.5625 C 29.8885,6.9717372 29.840185,7.3290712 30.34375,8.0625 C 30.685567,8.5603461 30.716385,8.6845817 30.59375,9.46875 C 30.451135,10.380665 30.599367,10.703771 31.28125,11 C 31.708759,11.185721 31.788169,11.59255 31.59375,12.625 C 31.376652,13.777896 31.478938,14.107294 32.15625,14.34375 C 32.84554,14.584385 32.957203,14.543461 32.71875,14.1875 C 32.61575,14.033741 32.538677,13.623866 32.53125,13.25 C 32.523822,12.876135 32.359628,11.9046 32.15625,11.09375 C 31.823727,9.7680182 31.804155,9.5609628 32.0625,9.1875 L 32.34375,8.78125 L 31.9375,8.65625 C 31.378471,8.4799882 31.271077,8.0379496 31.65625,7.5 C 31.912062,7.1427214 31.896065,7.025751 31.6875,6.8125 C 31.41416,6.5330208 31.563748,6.292649 32.40625,5.59375 C 32.714663,5.3379045 32.749934,5.2206572 32.5625,5.09375 C 32.37088,4.9640082 32.47666,4.8688308 33,4.5625 C 33.712179,4.1456316 36.62878,3.2306271 37.3125,3.21875 L 37.75,3.21875 L 37.40625,3.40625 C 36.87924,3.7075653 37.026222,3.9156011 37.78125,3.9375 C 38.159846,3.9484815 38.586887,4.0582622 38.71875,4.15625 C 38.921373,4.3068207 39.326369,4.3209313 39.875,4.21875 C 39.941998,4.2062723 40.02734,4.2852991 40.0625,4.40625 C 40.136073,4.659339 39.848658,4.9378929 39.3125,5.09375 C 39.107658,5.1532965 38.932625,5.2799481 38.90625,5.375 C 38.854238,5.5624306 39.104624,5.586253 40.125,5.46875 C 40.488765,5.4268586 40.823678,5.3833367 40.90625,5.40625 C 41.160097,5.4766887 40.863366,5.9695596 40.40625,6.21875 C 39.852562,6.5205831 39.913328,6.7955406 40.5,6.625 C 40.824951,6.5305398 41.036477,6.5955441 41.25,6.84375 C 41.485599,7.1176193 41.677442,7.1295596 42.15625,7 C 42.701172,6.8525492 43.68609,6.8540385 43.28125,7 C 43.186501,7.0341617 42.675354,7.4294066 42.15625,7.875 C 41.271343,8.6345931 41.246247,8.6885647 41.65625,8.71875 C 41.935736,8.7393262 42.314852,8.630155 42.6875,8.40625 C 43.824814,7.7228928 44.097944,7.6294215 44.1875,7.9375 C 44.232904,8.0936955 44.164026,8.4334181 44.0625,8.6875 C 43.875985,9.154273 43.575277,10.610198 43.625,10.78125 C 43.639814,10.832213 43.858851,10.53628 44.125,10.15625 C 44.697876,9.3382521 44.928091,9.3638039 44.6875,10.21875 C 44.592346,10.55688 44.463469,11.193733 44.375,11.625 C 44.286533,12.056268 43.958804,12.953873 43.65625,13.625 C 43.353695,14.296128 42.845549,15.45498 42.53125,16.1875 C 42.181988,17.001507 41.778542,17.685577 41.46875,17.9375 C 41.189971,18.164206 40.509614,18.744675 39.96875,19.21875 C 39.008808,20.060154 38.963391,20.071448 38.25,20.03125 C 37.84805,20.0086 37.496656,20.011721 37.46875,20.0625 C 37.36371,20.253637 38.400129,20.920354 38.78125,20.90625 C 39.010204,20.897777 39.64927,20.595066 40.28125,20.15625 C 40.884625,19.737297 41.497069,19.358773 41.65625,19.3125 C 41.815433,19.266226 42.248601,18.929493 42.59375,18.59375 C 42.938901,18.258007 43.365918,17.932145 43.5625,17.875 C 44.216808,17.684797 48.084609,12.055105 48.78125,10.28125 C 48.98577,9.7604813 49.134014,9.7101106 49.28125,9.5625 z M 35.4375,0.21875 C 36.022155,0.45086064 35.770701,0.53516033 34.5625,0.5625 C 33.530144,0.58586216 32.75618,0.44972408 33,0.28125 C 33.314263,0.064101074 34.942678,0.022302493 35.4375,0.21875 z M 34.0625,3.0625 C 34.181953,3.0746754 34.073917,3.146248 33.8125,3.21875 C 33.551082,3.2912533 33.451784,3.303427 33.59375,3.21875 C 33.735715,3.1340743 33.943048,3.0503268 34.0625,3.0625 z M 35.875,3.84375 C 35.74476,3.8816094 35.662259,4.0069231 35.6875,4.09375 C 35.71274,4.1805782 35.838509,4.2253595 35.96875,4.1875 C 36.098992,4.1496397 36.18149,4.0243274 36.15625,3.9375 C 36.131008,3.850673 36.005241,3.8058892 35.875,3.84375 z M 37.28125,9.21875 C 37.038264,9.4032012 37.022917,9.5347611 37.25,9.46875 C 37.331703,9.4449996 37.409404,9.3200031 37.4375,9.21875 C 37.466792,9.1131834 37.406069,9.1240004 37.28125,9.21875 z"
         id="path3313" />
      <path
         style="fill:#294269;fill-opacity:1"
         d="M 34.81534,18.713068 C 34.570564,18.78422 34.658799,19.616192 34.94034,19.806818 C 35.244424,20.012707 35.983692,19.844706 35.90909,19.588068 C 35.839219,19.347706 34.991112,18.661972 34.81534,18.713068 z"
         id="path4077" />
      <path
         style="fill:#294269;fill-opacity:1"
         d="M 32.84659,16.150568 C 32.735322,16.090974 32.631979,16.20589 32.53409,16.525568 C 32.349154,17.129522 32.605191,17.711233 33.03409,17.650568 C 33.318127,17.610392 33.34607,17.52438 33.19034,16.900568 C 33.083109,16.47103 32.957858,16.210162 32.84659,16.150568 z"
         id="path4075" />
      <path
         style="fill:#294269;fill-opacity:1"
         d="M 31.94034,12.369318 C 31.649456,12.453877 31.504054,13.30398 31.69034,13.744318 C 31.897481,14.233956 32.251287,14.3152 32.25284,13.869318 C 32.255739,13.03789 32.102286,12.322242 31.94034,12.369318 z"
         id="path4073" />
      <path
         style="fill:#294269;fill-opacity:1"
         d="M 31.56534,4.5568182 C 31.413852,4.4735666 31.155849,4.7181569 30.75284,5.4318182 C 29.928581,6.8914436 29.874944,7.2708188 30.40909,7.9630682 C 30.813332,8.4869562 30.855786,8.5734362 30.72159,9.2755682 C 30.54417,10.203848 30.624559,10.562047 31.12784,10.806818 C 31.443839,10.960505 31.528569,10.935948 31.53409,10.744318 C 31.551049,10.155638 31.380501,9.2758742 31.06534,8.2443182 C 30.765702,7.263574 30.770257,7.0511636 31.00284,6.5255682 C 31.14845,6.1965213 31.230284,5.8192293 31.19034,5.6818182 C 31.150396,5.5444048 31.261007,5.235114 31.44034,5.0255682 C 31.669553,4.7577395 31.716827,4.6400683 31.56534,4.5568182 z"
         id="path4071" />
      <path
         style="fill:#294269;fill-opacity:1"
         d="M 34.28409,2.4630682 C 34.208636,2.3949508 34.053583,2.4083558 33.94034,2.4943182 C 33.650411,2.7144056 33.715406,2.7613751 34.09659,2.6505682 C 34.275367,2.5985986 34.359547,2.531186 34.28409,2.4630682 z"
         id="path4069" />
      <path
         style="fill:#294269;fill-opacity:1"
         d="M 49.28409,9.3068182 L 49.28409,0.0568182 C 49.177686,0.0254906 49.104126,-0.1072929 48.90909,-0.0056818 L 48.47159,0.2130682 L 47.72159,-2.0056818 C 46.694132,-5.0577008 45.161851,-7.8718875 43.25284,-10.193182 C 42.440771,-11.180632 40.318372,-13.063416 39.22159,-13.786932 C 36.20572,-15.776417 31.419472,-17.403965 29.56534,-17.036932 C 28.732212,-16.872011 28.644748,-16.803451 28.34659,-16.224432 C 28.067115,-15.6817 28.049554,-15.464888 28.28409,-14.474432 C 28.480797,-13.643729 28.683108,-13.209625 29.00284,-12.849432 C 29.242445,-12.579506 29.484638,-12.078736 29.56534,-11.724432 C 29.646043,-11.370128 29.904014,-10.759395 30.12784,-10.380682 C 30.47346,-9.7958908 30.532372,-9.5944843 30.47159,-8.9744318 C 30.432225,-8.5728823 30.484398,-7.922877 30.59659,-7.5369318 C 30.757869,-6.9821253 30.722441,-6.6980554 30.47159,-6.1619318 C 30.267657,-5.7260787 30.200141,-5.1809827 30.25284,-4.6306818 C 30.344436,-3.6742508 30.284573,-3.2001995 29.97159,-2.6306818 C 29.683289,-2.1060716 29.730863,-1.5530675 30.09659,-1.0681818 C 30.487813,-0.5494898 30.541633,-0.7460676 30.56534,-2.2869318 C 30.575986,-2.978959 30.675341,-3.6106296 30.78409,-3.6931818 C 30.89284,-3.775734 31.040052,-4.1786907 31.09659,-4.5994318 C 31.153129,-5.020173 31.31733,-5.4335952 31.47159,-5.5369318 C 31.681633,-5.677636 31.710613,-5.8459483 31.56534,-6.1306818 C 31.458649,-6.3397963 31.403918,-6.6650174 31.44034,-6.8806818 C 31.476764,-7.0963462 31.489113,-7.5035364 31.47159,-7.7556818 C 31.452142,-8.0354814 31.602176,-8.3358103 31.84659,-8.5681818 C 32.305687,-9.0046575 32.295608,-9.0573457 31.87784,-9.2869318 C 31.69858,-9.3854461 31.496525,-9.7536466 31.37784,-10.161932 C 31.200477,-10.772076 31.214653,-10.881532 31.53409,-11.068182 C 31.734538,-11.185304 32.207534,-11.343929 32.56534,-11.411932 C 32.923148,-11.479937 33.196954,-11.545431 33.19034,-11.568182 C 33.183726,-11.590933 32.694002,-11.70664 32.09659,-11.818182 C 30.998319,-12.023238 30.800082,-12.217761 30.94034,-12.880682 C 31.041213,-13.357451 31.775196,-13.544344 33.00284,-13.411932 C 33.963352,-13.308333 36.167251,-12.604027 36.22159,-12.380682 C 36.236963,-12.317497 36.16994,-12.103394 36.09659,-11.911932 C 35.9716,-11.585669 35.895804,-11.56232 34.97159,-11.536932 C 33.834033,-11.505683 33.69491,-11.397331 34.44034,-11.193182 C 36.446063,-10.643879 37.782281,-10.050746 37.75284,-9.6931818 C 37.738561,-9.5197509 37.484828,-9.3858471 36.78409,-9.2244318 C 35.758522,-8.9881914 35.728796,-8.9336571 36.22159,-8.2869318 C 36.38695,-8.0699185 36.575787,-7.662763 36.65909,-7.3806818 C 36.742395,-7.0985997 36.910657,-6.8437618 37.00284,-6.8181818 C 37.095024,-6.7926023 37.203057,-6.6144377 37.25284,-6.4431818 C 37.302622,-6.2719267 37.45182,-6.1427997 37.59659,-6.1306818 C 37.74136,-6.1185635 37.883035,-6.0328142 37.90909,-5.9431818 C 37.938967,-5.8404011 37.67405,-5.7164344 37.15909,-5.6306818 C 36.401945,-5.504599 36.129555,-5.2915292 36.59659,-5.1619318 C 36.705334,-5.1317562 36.919448,-4.9491091 37.06534,-4.7556818 C 37.236233,-4.5291097 37.401183,-4.4672913 37.53409,-4.5681818 C 37.65424,-4.6593876 37.8538,-4.5955686 38.00284,-4.4431818 C 38.143586,-4.2992726 38.375654,-4.2187101 38.50284,-4.2556818 C 38.630028,-4.2926543 38.758309,-4.2506216 38.78409,-4.1619318 C 38.80987,-4.0732434 39.010774,-3.9784375 39.25284,-3.9431818 C 39.784388,-3.8657634 40.684508,-3.115709 41.03409,-2.4744318 L 41.31534,-2.0056818 L 40.72159,-2.0369318 C 40.406468,-2.046038 39.911624,-1.9932036 39.59659,-1.9431818 C 39.069557,-1.8594978 39.12143,-1.8386891 40.28409,-1.5369318 C 40.979067,-1.3565542 41.577309,-1.2097427 41.62784,-1.2244318 C 41.855583,-1.2906355 43.005691,-0.7421289 43.06534,-0.5369318 C 43.147955,-0.2527387 43.129871,-0.229384 42.34659,-0.3181818 C 41.325719,-0.4339124 40.98527,-0.2732535 41.06534,0.3068182 C 41.105928,0.6008812 41.223665,0.8335901 41.37784,0.9005682 C 41.806284,1.0866963 41.749195,1.278448 41.22159,1.4318182 L 40.72159,1.5880682 L 41.56534,1.9005682 C 42.203873,2.1324536 42.356448,2.2343087 42.15909,2.3380682 C 41.837035,2.5073828 39.539127,2.6050484 37.81534,2.5255682 C 36.465654,2.4633358 35.770675,2.5769146 35.84659,2.8380682 C 35.871351,2.9232413 36.092181,2.9786979 36.34659,2.9630682 C 37.20112,2.9105741 38.870421,2.9730553 40.28409,3.0880682 C 41.275327,3.1687144 41.854223,3.2943793 42.31534,3.5880682 C 42.674262,3.81667 43.08293,3.972126 43.22159,3.9318182 C 43.745494,3.7795227 44.416781,3.9921532 44.40909,4.3068182 C 44.40402,4.5142939 44.576683,4.6922378 44.97159,4.8380682 C 45.674862,5.0977701 45.61596,5.2641424 44.59659,6.3068182 C 44.213133,6.6990426 43.903185,7.0365052 43.90909,7.0568182 C 43.914994,7.0771317 44.090732,7.0580024 44.28409,6.9943182 C 44.558484,6.9039446 44.6391,6.9585483 44.69034,7.2443182 C 44.766253,7.6676958 44.887571,7.6613717 45.22159,7.2130682 C 45.353077,7.0365943 45.645272,6.8340893 45.84659,6.7755682 C 46.20226,6.6721778 46.209489,6.7014361 45.87784,7.5880682 C 45.690121,8.0899174 45.171913,9.5934652 44.75284,10.931818 C 44.333766,12.270169 43.486251,14.424418 42.87784,15.713068 C 41.933157,17.71396 41.682455,18.121946 41.15909,18.431818 C 40.822024,18.631388 40.210795,19.116452 39.78409,19.525568 C 39.124576,20.157894 38.936403,20.267114 38.50284,20.244318 C 37.908349,20.213058 37.758482,20.458564 38.22159,20.713068 C 38.657188,20.952455 39.39467,20.696268 40.28409,20.025568 C 40.690398,19.719176 41.18272,19.426038 41.37784,19.369318 C 41.572962,19.312598 42.013403,19.006246 42.34659,18.681818 C 42.679775,18.35739 43.188197,17.98145 43.47159,17.838068 C 44.409981,17.36329 47.764445,12.4177 48.94034,9.7755682 C 49.0548,9.5183872 49.166261,9.4410942 49.28409,9.3068182 z M 34.47159,-9.0994318 C 34.261869,-9.038468 34.288013,-8.9984787 34.59659,-8.8806818 C 35.018383,-8.7196684 35.376906,-8.7626394 35.31534,-8.9744318 C 35.267982,-9.1373418 34.840626,-9.2067081 34.47159,-9.0994318 z"
         id="path3311" />
      <path
         style="fill:#000000"
         d="M 35.28125,19.15625 C 35.270692,19.119938 35.136606,19.147789 35,19.1875 C 34.648871,19.289569 34.953785,19.786231 35.34375,19.75 C 35.580179,19.728034 35.603625,19.646427 35.46875,19.46875 C 35.370183,19.338903 35.291806,19.192563 35.28125,19.15625 z"
         id="path4169" />
      <path
         style="fill:#000000"
         d="M 32.65625,16.59375 C 32.54562,16.963342 32.736425,17.620951 32.9375,17.5625 C 33.024327,17.53726 33.002229,17.231467 32.90625,16.90625 C 32.776444,16.466418 32.718878,16.384518 32.65625,16.59375 z"
         id="path4167" />
      <path
         style="fill:#000000"
         d="M 43.84375,14.71875 C 43.789661,14.734473 43.285273,15.628254 42.71875,16.6875 C 41.842165,18.32648 41.61725,18.625075 41.1875,18.75 C 40.909758,18.830736 40.29537,19.235204 39.84375,19.65625 C 39.28108,20.180824 38.910461,20.426934 38.625,20.4375 C 38.357325,20.447405 38.247877,20.507201 38.34375,20.59375 C 38.564599,20.793118 39.540316,20.432552 40.34375,19.84375 C 40.731886,19.559303 41.221703,19.254972 41.4375,19.1875 C 41.653297,19.120027 42.008432,18.873287 42.21875,18.625 C 42.42907,18.376711 42.947945,17.945565 43.34375,17.6875 C 44.078927,17.20816 45.339285,15.46461 45.0625,15.3125 C 44.982763,15.268681 44.849574,15.352938 44.75,15.5 C 44.443131,15.953224 44.007476,15.767324 43.96875,15.1875 C 43.950235,14.91031 43.897839,14.703027 43.84375,14.71875 z"
         id="path4165" />
      <path
         style="fill:#000000"
         d="M 31.8125,12.96875 C 31.623478,13.178138 31.670456,13.786992 31.875,13.84375 C 31.967812,13.869504 32.006036,13.784515 31.96875,13.65625 C 31.931465,13.527986 31.923396,13.293495 31.9375,13.125 C 31.953627,12.932354 31.897945,12.874098 31.8125,12.96875 z"
         id="path4163" />
      <path
         style="fill:#000000"
         d="M 30.96875,9.0625 C 30.758294,9.1236773 30.597962,10.303288 30.78125,10.46875 C 31.037584,10.700151 31.237432,10.511772 31.125,10.125 C 31.063391,9.9130559 31.053772,9.6726526 31.125,9.59375 C 31.296622,9.4036382 31.179844,9.0011365 30.96875,9.0625 z"
         id="path4161" />
      <path
         style="fill:#000000"
         d="M 30.84375,5.875 C 30.637734,5.7642754 30.054523,7.0875554 30.15625,7.4375 C 30.290593,7.8996503 30.581966,7.8348045 30.5625,7.34375 C 30.552376,7.0883915 30.624659,6.6541847 30.75,6.40625 C 30.87534,6.1583163 30.929478,5.9210752 30.84375,5.875 z"
         id="path4159" />
      <path
         style="fill:#000000"
         d="M 30.15625,-2.40625 C 30.076403,-2.5218061 30.025729,-2.4255488 29.96875,-2.15625 C 29.862729,-1.6551437 29.974107,-1.486981 30.15625,-1.90625 C 30.226036,-2.0668934 30.225656,-2.3058051 30.15625,-2.40625 z"
         id="path4157" />
      <path
         style="fill:#000000"
         d="M 30.96875,-6.3125 C 30.899903,-6.5357283 30.813891,-6.4510558 30.5625,-5.9375 C 30.38699,-5.5789607 30.262418,-5.141035 30.3125,-4.96875 C 30.362582,-4.7964658 30.415795,-4.6499374 30.4375,-4.65625 C 30.459206,-4.6625631 30.598215,-4.9750854 30.75,-5.34375 C 30.901785,-5.712414 31.016813,-6.1566525 30.96875,-6.3125 z"
         id="path4155" />
      <path
         style="fill:#000000"
         d="M 49.28125,9.03125 L 49.28125,0.28125 C 49.168604,0.22226644 49.115381,0.074819781 48.875,0.15625 L 48.375,0.3125 L 47.59375,-2.03125 C 46.396594,-5.5687277 44.695732,-8.539771 42.71875,-10.59375 C 39.819927,-13.605471 38.080096,-14.706981 34.15625,-16.09375 C 31.984812,-16.861181 30.075675,-17.230934 29.28125,-17 C 28.761772,-16.848992 28.600536,-16.714846 28.40625,-16.21875 C 28.089322,-15.409501 28.327061,-13.987038 28.90625,-13.21875 C 29.139162,-12.909798 29.527109,-12.132357 29.78125,-11.5 C 30.035393,-10.867643 30.331646,-10.2234 30.4375,-10.09375 C 30.54735,-9.9592095 30.602748,-9.4722118 30.5625,-8.9375 C 30.514394,-8.2983829 30.574075,-7.8341294 30.75,-7.5 L 31,-7.03125 L 31.0625,-7.6875 C 31.083441,-8.0565589 31.138874,-8.5153362 31.21875,-8.6875 C 31.298627,-8.8596642 31.317424,-9.1668866 31.25,-9.375 C 31.182578,-9.5831147 30.915663,-10.610573 30.65625,-11.65625 C 30.268326,-13.219958 30.22341,-13.595572 30.40625,-13.78125 C 30.56203,-13.939447 30.584265,-14.092572 30.4375,-14.34375 C 30.140225,-14.852514 30.227378,-15.076118 30.75,-15 C 31.085439,-14.951143 31.244839,-14.976268 31.34375,-15.15625 C 31.664108,-15.739188 33.155285,-15.721481 34.59375,-15.09375 C 37.327267,-13.900873 38.383012,-13.201872 40.25,-11.46875 C 40.725121,-11.027695 40.897307,-10.755362 40.96875,-10.28125 C 41.0512,-9.7340979 41.124866,-9.6730272 41.5625,-9.59375 C 42.065638,-9.5026071 43.242401,-8.2024023 43.4375,-7.53125 C 43.487786,-7.3582667 43.77729,-6.955713 44.09375,-6.65625 C 45.745677,-5.0930467 47.592227,0.11599986 46.59375,0.40625 C 46.441838,0.45040872 45.970282,0.23877881 45.53125,-0.0625 C 45.092218,-0.36377838 44.716535,-0.58408466 44.6875,-0.53125 C 44.658465,-0.4784171 45.068326,-0.016027538 45.59375,0.46875 C 46.900822,1.6747091 46.911686,1.9398986 45.71875,1.84375 C 45.454785,1.8224737 45.1464,1.8813377 45.03125,1.96875 C 44.868156,2.0925554 44.964972,2.2262455 45.5,2.53125 C 46.321821,2.9997468 46.287339,3.2048429 45.40625,3.0625 C 45.05299,3.0054287 44.639272,3.0187949 44.5,3.09375 C 44.331039,3.1846827 44.523275,3.2884593 45.0625,3.375 C 45.506977,3.4463337 46.10763,3.5760225 46.375,3.6875 L 46.84375,3.90625 L 46.53125,4.53125 C 46.353893,4.8710155 46.277053,5.1222219 46.375,5.09375 C 46.472947,5.0652767 46.596578,4.9461765 46.625,4.84375 C 46.701503,4.5680498 47.305336,4.4237283 47.28125,4.6875 C 47.270206,4.8084158 46.802527,6.1148321 46.25,7.59375 C 45.162872,10.503599 44.425405,12.787043 44.25,13.6875 C 44.159101,14.154124 44.181986,14.33311 44.4375,14.625 C 44.769221,15.003947 45.159705,14.893499 45.53125,14.3125 C 45.633452,14.15268 45.828982,13.978129 45.96875,13.9375 C 46.439627,13.80062 48.146797,11.283774 48.5,10.21875 C 48.708391,9.5903795 48.99825,9.2397584 49.28125,9.03125 z M 47.65625,7.71875 C 47.795804,7.7490562 47.91732,7.9635705 48,8.375 C 48.234296,9.5409013 47.685494,10.432883 47,9.96875 C 46.65159,9.732848 46.709604,8.9605436 47.15625,8.1875 C 47.358244,7.8378919 47.516696,7.6884438 47.65625,7.71875 z"
         id="path3309" />
    </g>
  </g>
</svg>
