<?xml version="1.0" encoding="UTF-8" standalone="no"?>
<!-- Created with Inkscape (http://www.inkscape.org/) -->
<svg
   xmlns:dc="http://purl.org/dc/elements/1.1/"
   xmlns:cc="http://creativecommons.org/ns#"
   xmlns:rdf="http://www.w3.org/1999/02/22-rdf-syntax-ns#"
   xmlns:svg="http://www.w3.org/2000/svg"
   xmlns="http://www.w3.org/2000/svg"
   xmlns:xlink="http://www.w3.org/1999/xlink"
   xmlns:sodipodi="http://sodipodi.sourceforge.net/DTD/sodipodi-0.dtd"
   xmlns:inkscape="http://www.inkscape.org/namespaces/inkscape"
   width="64px"
   height="64px"
   id="svg3258"
   sodipodi:version="0.32"
   inkscape:version="0.46"
   sodipodi:docname="StrawberryButterfly.svg"
   inkscape:output_extension="org.inkscape.output.svg.inkscape"
   inkscape:export-filename="/home/andrewb/Desktop/Padre_Standalone/StrawBerryButterfly.png"
   inkscape:export-xdpi="360"
   inkscape:export-ydpi="360">
  <sodipodi:namedview
     id="base"
     pagecolor="#ffffff"
     bordercolor="#666666"
     borderopacity="1.0"
     inkscape:pageopacity="0.0"
     inkscape:pageshadow="2"
     inkscape:zoom="2.75"
     inkscape:cx="62.142161"
     inkscape:cy="-4.5827654"
     inkscape:current-layer="layer1"
     showgrid="true"
     inkscape:document-units="px"
     inkscape:grid-bbox="true"
     inkscape:window-width="916"
     inkscape:window-height="730"
     inkscape:window-x="520"
     inkscape:window-y="116"
     showguides="true"
     inkscape:guide-bbox="true" />
  <defs
     id="defs3260">
    <inkscape:perspective
       sodipodi:type="inkscape:persp3d"
       inkscape:vp_x="0 : 32 : 1"
       inkscape:vp_y="0 : 1000 : 0"
       inkscape:vp_z="64 : 32 : 1"
       inkscape:persp3d-origin="32 : 21.333333 : 1"
       id="perspective3266" />
    <inkscape:perspective
       id="perspective3275"
       inkscape:persp3d-origin="372.04724 : 350.78739 : 1"
       inkscape:vp_z="744.09448 : 526.18109 : 1"
       inkscape:vp_y="0 : 1000 : 0"
       inkscape:vp_x="0 : 526.18109 : 1"
       sodipodi:type="inkscape:persp3d" />
    <inkscape:perspective
       id="perspective3288"
       inkscape:persp3d-origin="372.04724 : 350.78739 : 1"
       inkscape:vp_z="744.09448 : 526.18109 : 1"
       inkscape:vp_y="0 : 1000 : 0"
       inkscape:vp_x="0 : 526.18109 : 1"
       sodipodi:type="inkscape:persp3d" />
    <inkscape:perspective
       id="perspective3301"
       inkscape:persp3d-origin="372.04724 : 350.78739 : 1"
       inkscape:vp_z="744.09448 : 526.18109 : 1"
       inkscape:vp_y="0 : 1000 : 0"
       inkscape:vp_x="0 : 526.18109 : 1"
       sodipodi:type="inkscape:persp3d" />
    <filter
       height="2.1956363"
       y="-0.59781816"
       width="1.104381"
       x="-0.052190476"
       id="filter4932"
       inkscape:collect="always">
      <feGaussianBlur
         id="feGaussianBlur4934"
         stdDeviation="0.9963636"
         inkscape:collect="always" />
    </filter>
    <filter
       id="filter6745"
       inkscape:collect="always">
      <feGaussianBlur
         id="feGaussianBlur6747"
         stdDeviation="0.36536619"
         inkscape:collect="always" />
    </filter>
    <filter
       inkscape:collect="always"
       id="filter6938">
      <feGaussianBlur
         inkscape:collect="always"
         stdDeviation="0.53485138"
         id="feGaussianBlur6940" />
    </filter>
    <inkscape:perspective
       id="perspective7545"
       inkscape:persp3d-origin="372.04724 : 350.78739 : 1"
       inkscape:vp_z="744.09448 : 526.18109 : 1"
       inkscape:vp_y="0 : 1000 : 0"
       inkscape:vp_x="0 : 526.18109 : 1"
       sodipodi:type="inkscape:persp3d" />
  </defs>
  <metadata
     id="metadata3263">
    <rdf:RDF>
      <cc:Work
         rdf:about="">
        <dc:format>image/svg+xml</dc:format>
        <dc:type
           rdf:resource="http://purl.org/dc/dcmitype/StillImage" />
      </cc:Work>
    </rdf:RDF>
  </metadata>
  <g
     id="layer1"
     inkscape:label="Layer 1"
     inkscape:groupmode="layer">
    <g
       transform="matrix(0.9490039,0,0,0.9490039,-81.308635,-1.9095915)"
       id="g4967">
      <path
         sodipodi:type="arc"
         style="opacity:1;fill:#000000;fill-opacity:0.27799228;stroke:none;stroke-width:12.56700039;stroke-linecap:round;stroke-linejoin:round;stroke-miterlimit:4;stroke-dasharray:none;stroke-opacity:1;filter:url(#filter4932)"
         id="path4892"
         sodipodi:cx="25.636364"
         sodipodi:cy="61.636364"
         sodipodi:rx="22.90909"
         sodipodi:ry="2"
         d="M 48.545454,61.636364 A 22.90909,2 0 1 1 2.7272739,61.636364 A 22.90909,2 0 1 1 48.545454,61.636364 z"
         transform="matrix(0.8809524,0,0,1,3.6883119,-9.0909147e-2)" />
      <g
         transform="translate(-0.9273644,3.5062316)"
         id="g3994">
        <path
           id="path4000"
           d="M 18.335711,59.281925 C 12.617319,57.68499 7.1623629,54.27572 4.0199064,49.135627 C 1.8622305,45.059032 0.5039148,40.361967 0.88974797,35.716725 C 1.6116371,26.275992 7.6633002,26.053404 4.2569878,23.244173 C 4.4703043,17.989533 1.7006662,13.867583 2.6171377,10.342734 C 4.7128449,9.0356981 7.1416815,10.24697 8.8942547,11.553821 C 10.340115,11.618678 14.453561,15.199204 14.733704,15.324423 C 17.385355,16.313242 20.009392,15.344195 22.640805,14.897744 C 29.754467,13.73166 36.990869,17.323459 41.46111,22.754116 C 44.677079,26.644781 46.782714,31.185408 47.350449,36.221748 C 48.51908,43.785947 45.393236,43.936908 45.807611,48.693425 C 46.577798,51.448224 46.437034,52.290289 47.62742,54.113335 C 45.823287,56.710733 44.130267,57.100299 41.465142,57.564765 C 40.577525,58.147488 38.208942,58.269178 40.653071,58.577694 C 40.62511,59.922195 36.883914,58.475261 35.488768,58.723801 C 32.506432,59.423917 29.339002,59.075386 26.268446,59.26139 C 23.624505,59.306437 20.979821,59.322336 18.335711,59.281925 z M 44.198929,57.894646 C 43.067701,55.615982 46.080025,58.309865 44.198929,57.894646 L 44.198929,57.894646 z"
           style="fill:#ecb689"
           sodipodi:nodetypes="cccccccccccccccccccc" />
        <path
           id="path3998"
           d="M 18.350657,59.016438 C 15.249451,57.640494 11.846337,56.657178 9.321904,54.274661 C 7.6341823,53.967938 7.516198,51.234577 9.5399784,52.369905 C 12.680372,54.734567 16.343043,57.435021 20.521907,56.672609 C 22.432646,56.753451 25.416059,56.898155 26.114458,54.699454 C 25.618861,52.690162 23.280195,51.493866 23.426677,49.167257 C 23.179656,47.041598 23.493364,44.439712 21.65128,42.937162 C 21.199198,41.394003 22.999065,43.569274 22.713052,41.997693 C 23.445445,40.466473 22.25486,37.079585 22.630301,36.797856 C 24.626932,38.902998 24.914188,34.648209 26.475889,33.832369 C 26.862527,32.031358 25.657823,30.367213 25.573947,28.445272 C 25.173386,27.275998 23.930429,25.626138 25.597112,27.320836 C 28.000252,29.58248 26.012645,25.221739 24.838108,24.805137 C 23.95275,23.532771 21.972076,23.162499 23.502861,24.992493 C 23.996458,26.159717 21.539217,23.533836 20.983749,23.31686 C 18.443603,20.84109 15.477756,23.542552 14.23432,25.947697 C 11.638041,26.930108 13.186586,29.810741 12.903291,31.523209 C 11.62015,29.552295 10.514258,30.913025 10.946642,32.735631 C 10.882492,34.118844 9.2445946,32.623159 9.5542659,34.368677 C 9.2601361,35.84435 10.178567,38.809483 9.581538,39.330737 C 9.3078346,37.533837 7.6184194,35.715769 7.1266796,37.559619 C 5.6191899,35.735555 6.9611304,42.590859 5.9114591,39.417229 C 5.7247813,38.374511 4.9729265,36.993513 5.2008467,38.870785 C 5.4368913,40.533469 3.7200948,39.743959 4.4136449,41.51316 C 4.586836,42.463992 4.8619407,45.23524 3.9918322,42.802568 C 2.7128174,39.419263 1.7745517,35.411348 3.5543356,32.026421 C 3.3269395,28.385961 5.5034582,25.215972 7.5595973,22.417813 C 7.4110505,19.364849 5.7332037,17.51778 4.1471449,14.385174 C 3.6816389,11.812499 6.5956886,12.052499 7.4341586,12.825448 C 8.8685374,14.165277 10.473786,14.086771 12.43276,14.41564 C 13.52869,15.889251 16.347997,15.46064 15.481186,17.550196 C 17.508567,18.507907 19.76902,16.798325 21.818479,16.355281 C 25.432778,15.3395 28.740733,17.750144 31.692685,19.488868 C 35.019954,21.498242 38.814621,23.812527 39.86234,27.827122 C 40.499258,30.752083 40.096532,33.784826 40.100204,36.736955 C 39.349492,39.838794 37.072752,42.473568 37.013806,45.75808 C 35.400057,47.084926 35.278764,51.671483 38.03248,51.263177 C 40.000185,50.198702 41.5422,48.561343 42.939792,46.820427 C 43.641405,45.429399 45.432345,45.61911 44.077115,47.163862 C 43.196548,48.102871 42.649942,49.874217 44.372595,48.403993 C 47.416906,48.907294 45.373011,52.57524 45.237011,54.52239 C 45.103159,55.541358 46.579624,56.85836 44.709491,55.8223 C 43.246981,55.500222 43.473674,53.320399 43.032598,53.104347 C 41.980523,53.478348 41.864172,55.418829 42.69617,54.946836 C 41.97489,56.039961 37.349556,56.301767 40.647994,56.241427 C 43.308606,57.413158 38.132812,57.599768 37.940533,58.723198 C 33.94398,58.402152 29.965219,59.292111 25.963701,59.041183 C 23.426999,59.094619 20.883494,59.2416 18.350657,59.016438 z M 44.971893,50.508011 C 44.269692,49.080079 44.269575,52.0431 44.971893,50.508011 z M 27.580503,26.458761 C 27.649637,24.861068 24.914532,24.902556 26.676299,26.141666 L 27.073283,26.311186 L 27.580503,26.458761 L 27.580503,26.458761 z M 24.097925,22.597038 C 23.44635,21.627111 22.902395,23.560962 24.097925,22.597038 z M 8.5719118,19.442446 C 6.9836147,19.10805 8.2639413,21.782403 8.569896,19.457365 L 8.5719118,19.442446 z M 3.5378489,12.580293 C 3.5769961,11.024777 1.8217728,13.191778 3.5378489,12.580293 L 3.5378489,12.580293 z M 27.269608,16.858007 C 27.635334,15.475167 28.713384,17.770002 27.269608,16.858007 z"
           style="fill:#e8a069"
           sodipodi:nodetypes="ccccccccccccccccccccccccccccccccccccccccccccccccccccccccccccccccc" />
        <path
           id="path3996"
           d="M 19.013445,59.03318 C 16.73009,57.92789 21.097695,57.924242 21.986659,57.872964 C 25.103073,57.754425 28.890091,57.770228 30.931079,55.00678 C 31.521696,54.36068 33.259092,53.781898 32.427075,53.32275 C 36.410274,53.892113 39.941404,51.194341 42.245752,48.214559 C 42.815337,47.491268 45.303091,45.313797 43.622202,47.328355 C 42.452665,48.306035 42.134068,50.30562 44.070027,48.907223 C 46.193248,47.755101 45.879037,51.045266 45.044875,52.121922 C 45.493894,54.337614 43.481302,51.15602 44.025731,53.222498 C 44.066454,53.602887 43.039026,52.088948 42.66783,53.462054 C 42.019548,54.812239 39.798476,56.359844 39.163965,56.286814 C 40.193278,56.195303 42.820481,57.036715 40.330131,57.291037 C 38.906351,57.127739 37.452241,58.215454 37.304993,58.545941 C 34.247312,58.24223 31.23765,59.377664 28.173538,58.973003 C 25.120927,59.024864 22.064822,59.242474 19.013445,59.03318 z M 44.89719,50.974911 C 46.092384,47.822337 42.058454,51.716859 44.89719,50.974911 z M 44.901085,55.910786 C 43.69902,55.639351 43.384025,53.870257 44.643068,54.515102 C 45.328625,54.085591 45.882825,57.402547 44.901085,55.910786 z M 6.5341287,24.344223 C 4.8209847,21.082597 7.2614366,21.047836 5.9807004,16.989903 C 4.7337804,16.978699 2.7068593,16.219347 4.8605288,15.267127 C 1.1423401,13.590537 7.2664367,10.953627 8.0653388,11.737872 C 9.8251537,13.631949 11.668305,16.165467 14.572174,15.995446 C 12.017484,16.834424 9.0793002,19.097991 10.390438,21.937327 C 9.6739376,23.371557 8.1428995,24.345136 6.5341287,24.344223 z"
           style="fill:#a96337"
           sodipodi:nodetypes="ccccccccccccccccccccccccccc" />
      </g>
    </g>
    <path
       id="path6817"
       d="M -35.490294,-34.803813 C -35.576124,-34.723343 -35.567929,-34.640252 -35.434416,-34.604153 C -35.300904,-34.568053 -35.1025,-34.599195 -35.016672,-34.679662 C -34.930839,-34.76013 -34.993709,-34.861045 -35.127222,-34.897144 C -35.260732,-34.933244 -35.404465,-34.884279 -35.490294,-34.803813 z"
       style="fill:#294269;fill-opacity:1" />
    <path
       id="path6819"
       d="M -38.722299,-34.073175 L -39.318866,-33.541865 C -39.645176,-33.255013 -39.904804,-32.89178 -39.877375,-32.756224 C -39.82146,-32.479838 -39.605996,-32.705506 -39.082356,-33.52525 L -38.722299,-34.073175 z"
       style="fill:#294269;fill-opacity:1" />
    <path
       id="path6821"
       d="M -34.91544,-38.6082 C -34.829614,-38.688667 -34.653439,-38.612193 -34.532737,-38.483446 C -34.412037,-38.354697 -34.389825,-38.182417 -34.475652,-38.101949 C -34.561478,-38.021483 -34.719228,-38.061709 -34.839931,-38.190456 C -34.96063,-38.319204 -35.001269,-38.527732 -34.91544,-38.6082 z"
       style="fill:#294269;fill-opacity:1" />
    <g
       id="g2542">
      <image
         transform="matrix(0.9930536,0.1176628,-0.1176628,0.9930536,0,0)"
         xlink:href="Strawberry.png"
         sodipodi:absref="/home/andrewb/Desktop/strawberry.bmp"
         width="69.944038"
         height="67.299644"
         id="image7547"
         x="0.23527583"
         y="-3.041851" />
      <g
         transform="matrix(0.4938313,-2.9801443e-2,2.9801443e-2,0.4938313,22.575229,0.9473129)"
         inkscape:export-ydpi="90"
         inkscape:export-xdpi="90"
         inkscape:export-filename="/home/andrewb/Desktop/Padre_Standalone/CSJ-Artwork-Stripe.png"
         id="g6942">
        <path
           id="path6813"
           d="M 39.651686,50.968678 C 39.686003,50.851415 39.720577,50.531621 39.748997,50.514408 C 39.857948,50.448421 40.282415,51.069747 40.988781,52.292172 C 41.914041,53.893421 42.259171,54.347591 43.240179,55.114348 C 43.874918,55.610462 44.844106,56.433236 45.392663,56.971878 C 47.580005,59.119669 49.446404,59.79369 53.211909,59.25743 C 55.068243,58.993066 55.646002,58.772773 56.010842,58.381845 C 56.263378,58.111251 56.472845,57.751637 56.482461,57.585403 C 56.498774,57.303387 57.619967,56.003793 58.588832,55.097616 C 58.935209,54.773647 58.991601,54.440437 58.987077,53.340958 C 58.981925,52.087897 59.021965,51.958725 59.54573,51.503325 C 60.29625,50.850771 60.23728,50.446991 59.329395,49.489255 C 58.541887,48.658506 58.425603,48.065031 58.783444,47.138042 C 58.922495,46.777824 58.919264,46.409206 58.783532,46.144811 C 58.085064,44.784223 58.03382,44.42216 58.304991,43.505903 C 58.485866,42.894745 58.513202,42.461375 58.371209,42.211555 C 57.782101,41.175151 57.65114,40.706979 57.692396,40.021089 C 57.73596,39.296754 57.682949,39.255416 56.679793,37.903019 C 56.679793,37.903019 55.676998,36.475853 55.676998,36.475853 C 55.676998,36.475853 54.382448,36.229275 54.382448,36.229275 C 53.669483,36.077948 53.08375,35.827272 53.078633,35.701595 C 53.073508,35.575925 53.292807,35.280254 53.571533,35.032573 C 54.939332,33.817135 55.286455,32.872915 55.284419,30.408805 C 55.283591,29.4108 55.220206,29.258599 54.617419,28.388423 C 54.091788,27.629637 53.946352,27.289985 53.872151,26.583867 C 53.799653,25.894041 53.66023,25.469752 53.118874,24.651666 C 52.548833,23.79024 52.399243,23.476618 52.370529,22.795878 C 52.351426,22.342978 52.225668,21.742527 52.07426,21.487716 C 51.771543,20.978312 51.569052,19.736789 51.770271,19.567144 C 51.840245,19.50815 51.877042,18.896531 51.862898,18.173279 C 51.848756,17.450028 51.946189,16.547616 52.070405,16.19634 C 52.729941,14.331171 51.873212,11.706735 50.432103,11.441902 C 49.249433,11.22456 48.035488,11.899296 45.850433,14.128186 C 41.076869,18.99752 38.951718,24.321004 38.086813,30.56804 C 37.70948,33.293439 37.557754,35.853021 37.665163,38.021231 C 37.745757,39.648235 37.611133,40.085691 37.236145,39.438643 C 37.094998,39.195092 36.919015,39.147866 36.779795,39.210991 C 36.779795,39.210991 39.651686,50.968678 39.651686,50.968678 C 39.651686,50.968678 39.651686,50.968678 39.651686,50.968678"
           style="opacity:0.22999998;fill:#000000;fill-opacity:1;filter:url(#filter6938)" />
        <g
           id="g4218"
           transform="matrix(1.1599009,-0.5896003,0.5896003,1.1599009,-24.412858,64.319425)">
          <path
             style="fill:#4ab0e8;fill-opacity:1"
             d="M 49.28125,9.65625 C 49.338036,9.5690206 49.438778,9.3212125 49.46875,9.3125 C 49.58365,9.2790991 49.845192,9.8478158 50.21875,10.9375 C 50.70807,12.36487 50.91188,12.77836 51.59375,13.59375 C 52.034939,14.121331 52.671432,14.998861 53,15.5625 C 54.310144,17.809968 55.599576,18.89358 58.53125,20.21875 C 59.976517,20.87204 60.444352,21.022352 60.84375,20.90625 C 61.120207,20.825886 61.400612,20.655237 61.46875,20.53125 C 61.584345,20.320904 62.862407,19.888397 63.90625,19.6875 C 64.279434,19.615676 64.453908,19.382784 64.875,18.5 C 65.354914,17.493904 65.428607,17.40863 66,17.3125 C 66.818767,17.174754 66.953625,16.800495 66.59375,15.5625 C 66.281591,14.488652 66.382134,13.962421 67,13.375 C 67.240094,13.146734 67.366374,12.842154 67.34375,12.5625 C 67.227334,11.123386 67.283275,10.819181 67.8125,10.1875 C 68.165502,9.7661581 68.327687,9.4204398 68.28125,9.15625 C 68.088571,8.0602126 68.104352,7.6347432 68.34375,7.09375 C 68.596562,6.522432 68.572112,6.4538149 68.03125,5 L 67.5,3.5 L 66.375,2.84375 C 65.759141,2.470802 65.285016,2.0677792 65.3125,1.96875 C 65.339976,1.8697245 65.617305,1.7191145 65.9375,1.625 C 67.508792,1.1631513 68.081415,0.52300185 68.6875,-1.40625 C 68.932971,-2.1876299 68.909364,-2.3267723 68.5625,-3.1875 C 68.260033,-3.9380508 68.209359,-4.2451329 68.3125,-4.8125 C 68.413254,-5.3667799 68.386002,-5.7351638 68.09375,-6.53125 C 67.78601,-7.3695111 67.731601,-7.6581872 67.875,-8.1875 C 67.970405,-8.5396554 68.007832,-9.0380657 67.9375,-9.28125 C 67.796873,-9.7674186 67.937255,-10.78009 68.15625,-10.84375 C 68.232407,-10.865888 68.420176,-11.319967 68.59375,-11.875 C 68.767326,-12.430032 69.084678,-13.084766 69.28125,-13.3125 C 70.324973,-14.52171 70.285121,-16.75723 69.21875,-17.46875 C 68.343615,-18.052672 67.231203,-18.004592 64.84375,-17.28125 C 59.628016,-15.701001 55.826293,-12.601932 53.03125,-7.625 C 51.811853,-5.4537096 50.917948,-3.2838319 50.4375,-1.40625 C 50.076973,0.0026683024 49.845091,0.33712644 49.65625,-0.3125 C 49.58517,-0.55702229 49.430396,-0.64388192 49.28125,-0.625 L 49.28125,9.65625 z"
             id="path4126" />
          <path
             style="fill:#35648f;fill-opacity:1"
             d="M 49.28125,9.5625 C 49.580057,9.2629336 49.853858,9.476443 50.34375,10.875 C 50.850446,12.321536 51.065712,12.714915 51.75,13.53125 C 52.194272,14.061255 52.827682,14.967611 53.15625,15.53125 C 54.459902,17.76758 55.670619,18.792393 58.53125,20.09375 C 59.510011,20.539006 60.367849,20.895248 60.4375,20.875 C 60.507151,20.854752 60.654868,20.840396 60.78125,20.84375 C 60.907631,20.847102 61.272304,20.571863 61.59375,20.25 C 62.160502,19.682517 62.166332,19.660512 61.71875,19.78125 C 60.789863,20.031822 60.147449,19.857337 58.75,18.90625 C 57.62207,18.138593 57.318189,17.828832 57.0625,17.25 C 56.890393,16.860385 56.455428,16.038597 56.09375,15.4375 C 55.272558,14.072699 54.342598,12.012085 54.375,11.625 C 54.396092,11.373007 54.480618,11.361949 54.96875,11.625 L 55.53125,11.9375 L 55.375,11.28125 C 54.934846,9.3381438 54.751554,8.2858848 54.875,8.25 C 54.951399,8.2277913 55.346357,8.3570077 55.71875,8.53125 C 56.091141,8.7054919 56.510057,8.8237473 56.65625,8.78125 C 56.802445,8.7387525 57.087175,8.7401882 57.28125,8.78125 C 57.650314,8.8593343 57.707301,8.6008816 57.34375,8.5 C 57.043112,8.4165774 56.015467,7.4557135 55.9375,7.1875 C 55.893593,7.0364651 56.031469,6.9163596 56.28125,6.84375 C 56.499498,6.7803081 56.767064,6.5931392 56.90625,6.4375 C 57.125688,6.1921245 57.27117,6.2115884 57.875,6.53125 C 58.692742,6.964155 59.086158,6.7518915 58.46875,6.21875 C 58.251952,6.0315399 57.910617,5.8172695 57.71875,5.75 C 57.385158,5.633039 57.12202,5.2207051 57.34375,5.15625 C 57.402008,5.1393152 57.960838,5.2035747 58.59375,5.3125 C 59.22666,5.421428 59.784295,5.4888192 59.8125,5.4375 C 59.8407,5.3861793 59.645746,5.2027285 59.40625,5.03125 C 58.761714,4.5697612 58.80364,4.3768443 59.5625,4.15625 C 59.93586,4.0477183 60.279874,3.8662326 60.34375,3.75 C 60.423502,3.6048815 60.612631,3.5675663 60.9375,3.59375 C 61.312569,3.6239801 61.420162,3.550874 61.4375,3.34375 C 61.452078,3.1695848 61.681472,3.0351797 62.125,2.90625 C 62.665424,2.749153 63.131676,2.8074749 64.5625,3.21875 C 67.285437,4.0014317 67.092663,3.911236 66.9375,4.59375 C 66.865182,4.9118514 66.865318,5.3766777 66.9375,5.625 C 67.102374,6.1921555 66.925935,6.4098556 66.46875,6.1875 C 65.881838,5.9020551 65.88043,6.0752883 66.46875,6.5625 C 67.13641,7.1154291 67.280108,7.5086669 66.9375,7.84375 C 66.764119,8.0133277 66.698396,8.3436459 66.78125,8.90625 C 66.84796,9.35921 66.849775,9.7499641 66.75,9.78125 C 66.549978,9.8439685 66.166145,11.791532 66.28125,12.1875 C 66.432377,12.70739 66.325485,12.994048 65.875,13.125 C 65.368871,13.272127 65.345316,13.382837 65.78125,13.71875 C 66.04625,13.922948 66.117009,13.910005 66.59375,13.5625 C 67.268412,13.070726 67.309322,12.951226 67.15625,12.0625 C 66.971764,10.991387 67.040929,10.736702 67.625,10.1875 C 68.188279,9.657849 68.305162,9.1160155 68.0625,8.28125 C 67.962655,7.9377981 68.015764,7.5270291 68.21875,7.03125 C 68.448116,6.4710331 68.468964,6.1825442 68.3125,5.90625 C 68.197067,5.7024279 67.931404,5.0941064 67.71875,4.5625 C 67.344951,3.6280686 67.282299,3.5513175 65.875,2.6875 C 64.466088,1.822687 64.403739,1.8175578 63.34375,1.90625 C 62.74141,1.9566491 62.026839,1.9607412 61.75,1.90625 C 61.47316,1.8517557 61.108428,1.8343965 60.96875,1.875 C 60.829071,1.915603 60.752828,1.8524265 60.78125,1.75 C 60.810654,1.6440295 61.570042,1.3509993 62.5625,1.0625 C 64.047969,0.63068777 64.292268,0.52293885 64.15625,0.34375 C 64.043667,0.1954348 64.096398,0.10150571 64.34375,0.03125 C 64.972983,-0.14747017 65.453537,-0.075211605 65.53125,0.1875 C 65.611573,0.45904299 66.895255,0.84003927 67.3125,0.71875 C 67.752057,0.59097494 67.433323,0.16068031 66.84375,0.09375 C 66.527268,0.057826534 66.144784,-0.06781226 65.96875,-0.1875 C 65.664206,-0.39455091 65.683855,-0.40192199 66.53125,-0.53125 C 67.054311,-0.61107845 67.547745,-0.58910616 67.71875,-0.46875 C 67.990412,-0.27754339 67.996375,-0.29249119 68.09375,-0.625 C 68.151142,-0.82100348 68.33945,-1.2684105 68.5,-1.625 C 68.772801,-2.230906 68.764381,-2.3298071 68.40625,-3.1875 C 68.078945,-3.9713318 68.038973,-4.1999507 68.1875,-4.78125 C 68.339258,-5.3752196 68.306904,-5.6093702 67.9375,-6.53125 C 67.579761,-7.4240143 67.557553,-7.6373136 67.71875,-7.96875 C 67.823654,-8.1844451 67.870552,-8.7296174 67.8125,-9.1875 C 67.731841,-9.8237071 67.787853,-10.253745 68.125,-10.96875 C 68.367641,-11.48334 68.606972,-12.067327 68.625,-12.28125 C 68.643025,-12.495173 68.823311,-12.907895 69.0625,-13.1875 C 69.622781,-13.842444 69.903794,-14.693038 69.90625,-15.78125 C 69.908059,-16.585097 69.876008,-16.700088 69.46875,-17.09375 C 68.48264,-18.046923 66.3209,-17.884985 63.21875,-16.625 C 58.555107,-14.73079 55.362972,-11.737414 52.75,-6.84375 C 51.601108,-4.6920689 51.130699,-3.5192163 50.59375,-1.5 C 50.35841,-0.61499221 50.113278,0.16207089 50.03125,0.21875 C 49.949224,0.27542865 49.780155,0.14955528 49.65625,-0.0625 C 49.525413,-0.28642206 49.399563,-0.29853508 49.28125,-0.25 L 49.28125,9.5625 z M 58.4375,9 C 58.180224,8.978465 58.164044,9.0336027 58.40625,9.28125 C 58.729593,9.6118568 59.03843,9.5659529 58.9375,9.21875 C 58.899642,9.0885094 58.817562,8.9894448 58.78125,9 C 58.744938,9.0105556 58.601391,9.0137196 58.4375,9 z M 55.75,12.125 C 55.71171,12.13613 55.653423,12.210073 55.625,12.3125 C 55.596578,12.414927 55.658048,12.49548 55.75,12.46875 C 55.841951,12.442021 55.900241,12.336828 55.875,12.25 C 55.849761,12.163172 55.78829,12.11387 55.75,12.125 z M 66.0625,14.875 C 65.868711,14.622753 65.839991,14.642723 65.71875,15.21875 C 65.645,15.569142 65.55308,16.132828 65.53125,16.46875 C 65.496654,17.00111 65.532247,17.082429 65.8125,17.1875 C 66.235881,17.346232 66.321225,17.33809 66.53125,16.90625 C 66.71836,16.521523 66.454197,15.384853 66.0625,14.875 z M 64.34375,16.96875 C 64.284197,17.183354 64.606654,17.582003 64.78125,17.53125 C 64.849496,17.511411 64.894723,17.387713 64.90625,17.25 C 64.931026,16.954047 64.418387,16.699774 64.34375,16.96875 z M 64.71875,17.96875 C 64.665904,17.78695 63.279937,18.480136 62.96875,18.84375 C 62.584327,19.29294 62.632129,19.39629 63.28125,19.5625 C 63.922274,19.726636 64.043587,19.693549 64.28125,19.34375 C 64.475707,19.057539 64.769494,18.143312 64.71875,17.96875 z"
             id="path4129" />
          <path
             style="fill:#294269;fill-opacity:1"
             d="M 65.03409,-10.943182 C 64.947262,-10.917942 64.92394,-10.858161 65.00284,-10.786932 C 65.081739,-10.715703 65.228514,-10.667943 65.31534,-10.693182 C 65.402169,-10.71842 65.39424,-10.809453 65.31534,-10.880682 C 65.236442,-10.951911 65.120916,-10.96842 65.03409,-10.943182 z"
             id="path4067" />
          <path
             style="fill:#294269;fill-opacity:1"
             d="M 62.56534,-11.568182 L 61.97159,-11.411932 C 61.648131,-11.329045 61.343757,-11.170606 61.31534,-11.068182 C 61.257395,-10.859352 61.483603,-10.938924 62.12784,-11.318182 L 62.56534,-11.568182 z"
             id="path4065" />
          <path
             style="fill:#294269;fill-opacity:1"
             d="M 66.75284,-13.349432 C 66.839664,-13.374672 66.933732,-13.260924 66.97159,-13.130682 C 67.009445,-13.000439 66.964665,-12.874672 66.87784,-12.849432 C 66.791016,-12.824193 66.696948,-12.90669 66.65909,-13.036932 C 66.621234,-13.167174 66.666014,-13.324193 66.75284,-13.349432 z"
             id="path4063" />
          <path
             style="fill:#294269;fill-opacity:1"
             d="M 49.28409,9.3068182 C 49.356308,9.2245202 49.457327,9.0239672 49.50284,9.0255682 C 49.630052,9.0300422 49.816511,9.3283872 49.97159,9.7755682 C 50.587651,11.55202 51.294072,12.930429 51.90909,13.588068 C 52.260791,13.964142 52.826187,14.774509 53.19034,15.400568 C 54.471424,17.603028 55.926921,18.891277 58.15909,19.806818 C 58.852375,20.091175 59.449171,20.385946 59.47159,20.463068 C 59.526801,20.652992 60.500462,20.854019 60.87784,20.744318 C 61.045172,20.695675 61.245089,20.499777 61.31534,20.338068 C 61.423334,20.089481 61.35837,20.049561 60.90909,20.088068 C 60.561251,20.11788 60.141959,19.973656 59.69034,19.650568 C 59.310879,19.379102 58.642267,18.96846 58.22159,18.744318 C 57.60963,18.418256 57.360422,18.164583 57.00284,17.463068 C 56.757028,16.980829 56.193717,15.994888 55.75284,15.275568 C 55.074585,14.168952 54.810907,13.542245 54.03409,11.088068 C 53.126689,8.2213392 53.136801,8.1764901 53.53409,8.4318182 C 53.755171,8.5739012 54.053789,8.9829792 54.22159,9.3380682 C 54.743259,10.441981 54.77078,9.5981162 54.25284,8.2443182 C 54.001581,7.5875811 53.868757,7.0151269 53.94034,6.9943182 C 54.011921,6.97351 54.33092,7.1120116 54.65909,7.2755682 L 55.25284,7.5568182 L 54.69034,7.0255682 C 53.8974,6.2741297 53.246149,5.5300541 53.19034,5.3380682 C 53.163879,5.2470469 53.351247,5.1059714 53.62784,5.0255682 C 53.927445,4.9384745 54.250298,4.7005434 54.40909,4.4318182 C 54.648831,4.0261082 54.852689,3.9381554 56.37784,3.4943182 C 57.310441,3.2229185 58.714091,2.9326039 59.53409,2.8380682 C 60.354091,2.7435328 61.06905,2.6283018 61.09659,2.5880682 C 61.21603,2.4135755 60.780924,2.3969504 58.69034,2.4630682 C 57.469983,2.5016641 56.387628,2.4917991 56.28409,2.4630682 C 55.791402,2.3263531 56.13995,2.1311343 57.44034,1.7755682 C 59.083384,1.326311 59.388736,1.0327927 58.59659,0.7130682 C 58.316925,0.6001894 57.985435,0.4984999 57.87784,0.4943182 C 57.770242,0.4901352 57.707936,0.3449286 57.72159,0.1818182 C 57.740058,-0.0388074 57.941812,-0.153146 58.50284,-0.3181818 C 58.917609,-0.4401932 59.334565,-0.6336532 59.44034,-0.7556818 C 59.56855,-0.90359503 59.572364,-0.97981182 59.44034,-0.9431818 C 59.331419,-0.91296137 59.196949,-1.0004407 59.15909,-1.1306818 C 59.108204,-1.305729 59.295657,-1.4266654 59.84659,-1.5994318 C 60.256505,-1.7279767 60.772645,-1.9114806 60.97159,-2.0369318 L 61.31534,-2.2869318 L 60.75284,-2.3806818 C 60.435419,-2.4453935 59.9324,-2.6957916 59.65909,-2.9119318 C 59.193481,-3.2801496 59.193843,-3.3347355 59.31534,-3.7869318 C 59.49414,-4.4524034 60.199643,-5.0846981 61.00284,-5.3181818 C 61.86717,-5.5694356 61.796627,-5.7840195 60.87784,-5.7244318 C 60.352371,-5.6903538 60.136886,-5.7786112 60.03409,-6.0056818 C 59.831148,-6.4539761 60.221845,-7.5890649 60.65909,-7.7869318 C 60.861928,-7.8787224 61.145736,-8.0835 61.28409,-8.2556818 C 61.680094,-8.7485193 63.22669,-9.1183843 64.12784,-8.9431818 C 64.548035,-8.8614871 65.219455,-8.7885809 65.59659,-8.7869318 C 66.395483,-8.783441 67.025071,-8.2696994 66.81534,-7.7869318 C 66.748133,-7.6322303 66.780998,-7.3832429 66.87784,-7.2556818 C 66.974675,-7.1281161 66.986667,-6.8215282 66.90909,-6.5681818 C 66.794361,-6.1934944 66.813532,-6.0386441 67.06534,-5.7244318 C 67.239846,-5.5066753 67.408119,-5.0852494 67.44034,-4.7556818 C 67.516493,-3.9767825 67.795752,-3.9318929 68.06534,-4.6619318 C 68.263015,-5.1972364 68.23803,-5.3811333 67.84659,-6.3806818 C 67.463426,-7.359071 67.444549,-7.5515532 67.62784,-8.0056818 C 67.741904,-8.2882677 67.778514,-8.8692634 67.72159,-9.3181818 C 67.640176,-9.9603237 67.736079,-10.349708 68.12784,-11.161932 C 68.40172,-11.729756 68.598804,-12.296821 68.56534,-12.411932 C 68.531876,-12.527043 68.738881,-12.902687 69.03409,-13.255682 C 69.392397,-13.684118 69.629973,-14.250064 69.75284,-14.911932 C 70.085212,-16.702415 69.545198,-17.504199 67.94034,-17.630682 C 67.012565,-17.7038 66.739888,-17.626112 64.44034,-16.880682 C 62.421054,-16.226101 61.649481,-15.931801 60.53409,-15.255682 C 57.373002,-13.339516 55.151425,-10.979171 53.09659,-7.4119318 C 52.20574,-5.8653978 51.13039,-3.2564106 50.72159,-1.6619318 C 50.552026,-1.0005715 50.344369,-0.2663243 50.28409,-0.0369318 C 50.141716,0.5048715 49.922831,0.5518536 49.59659,0.1193182 C 49.496306,-0.0136403 49.373281,0.0830781 49.28409,0.0568182 L 49.28409,9.3068182 z M 65.87784,-13.849432 C 66.611324,-13.895479 66.651364,-13.649871 65.94034,-13.443182 C 65.442933,-13.29859 65.390507,-13.260128 65.62784,-13.099432 C 65.821726,-12.968155 65.869267,-12.848172 65.78409,-12.693182 C 65.632738,-12.417788 65.288737,-12.510941 65.19034,-12.849432 C 65.129614,-13.058334 65.057674,-13.018486 64.87784,-12.661932 C 64.756037,-12.42044 64.50693,-12.156567 64.31534,-12.099432 C 64.123742,-12.042292 63.888206,-11.904693 63.78409,-11.786932 C 63.63867,-11.62245 63.812717,-11.55768 64.56534,-11.443182 C 65.104169,-11.361212 65.541447,-11.205481 65.53409,-11.130682 C 65.526735,-11.055883 65.694946,-11.025623 65.90909,-11.036932 C 66.55598,-11.071088 66.890457,-9.9319498 66.28409,-9.7556818 C 66.118049,-9.707415 65.450193,-9.7378844 64.81534,-9.7869318 C 64.029703,-9.8476255 63.504818,-9.7945186 63.19034,-9.6306818 C 62.665107,-9.3570446 61.001715,-9.2323513 60.69034,-9.4431818 C 60.576714,-9.5201112 60.428681,-9.7476933 60.34659,-9.9431818 C 60.22569,-10.231104 60.296689,-10.330141 60.69034,-10.568182 C 61.016043,-10.765136 61.101993,-10.937563 61.00284,-11.068182 C 60.899143,-11.204782 61.00543,-11.306891 61.34659,-11.443182 C 61.674534,-11.574194 61.858197,-11.78413 61.90909,-12.068182 C 61.950633,-12.300056 62.040145,-12.590464 62.09659,-12.693182 C 62.222052,-12.921473 65.121073,-13.801927 65.87784,-13.849432 z M 59.53409,-9.5056818 C 59.993479,-9.4084859 59.990877,-8.8952629 59.53409,-8.6931818 C 59.326362,-8.6012832 59.124723,-8.4528859 59.06534,-8.3494318 C 58.945727,-8.14106 58.799991,-8.1033001 58.22159,-8.0994318 C 57.879683,-8.0971464 57.831823,-8.1136387 57.94034,-8.4119318 C 58.118028,-8.9003576 59.117628,-9.5937889 59.53409,-9.5056818 z M 68.19034,-2.9119318 C 67.97835,-2.7666633 68.066519,-2.0799212 68.31534,-1.9431818 C 68.431362,-1.8794255 68.549705,-1.9508242 68.62784,-2.1306818 C 68.776228,-2.4722339 68.43662,-3.0807028 68.19034,-2.9119318 z M 64.31534,2.0880682 C 64.117084,2.1457006 63.746431,2.1881409 63.47159,2.1818182 C 62.709566,2.1642893 61.707247,2.3372784 61.84659,2.4630682 C 61.91475,2.5245968 62.174298,2.574588 62.44034,2.5568182 C 62.706385,2.5390506 63.645447,2.7409395 64.53409,2.9943182 C 66.809649,3.6431403 67.092279,3.6615293 66.03409,3.1193182 C 65.524433,2.8581658 64.996128,2.4833915 64.87784,2.3068182 C 64.737804,2.0977746 64.550053,2.0198393 64.31534,2.0880682 z M 67.28409,4.2130682 L 67.25284,4.8693182 C 67.238997,5.2249832 67.331328,5.6440902 67.44034,5.8068182 C 67.557307,5.9814276 67.584886,6.288876 67.50284,6.5568182 C 67.426374,6.8065325 67.390774,7.1675604 67.44034,7.3380682 C 67.489902,7.5085764 67.470216,7.7637204 67.37784,7.9318182 C 67.285459,8.0999216 67.237748,8.3973802 67.28409,8.5568182 C 67.33044,8.7162532 67.301061,9.1510852 67.22159,9.5255682 C 67.017822,10.485763 67.070007,10.502742 67.72159,9.9943182 C 68.183631,9.6337942 68.228748,9.4071182 68.00284,8.6193182 C 67.855807,8.1065968 67.884005,7.7967025 68.12784,7.2755682 C 68.481823,6.5190214 68.391166,6.083171 67.72159,4.9630682 L 67.28409,4.2130682 z M 52.53409,6.6505682 C 52.855704,7.0412385 53.072895,7.8071155 52.84659,7.7443182 C 52.744163,7.7158959 52.571268,7.3912347 52.47159,7.0255682 C 52.330696,6.5087034 52.357259,6.4357702 52.53409,6.6505682 z M 66.84659,11.619318 C 66.610162,11.688046 66.468692,12.16184 66.56534,12.494318 C 66.618343,12.676654 66.575718,12.924206 66.50284,13.056818 C 66.342954,13.34775 66.490057,13.441814 66.78409,13.244318 C 66.90226,13.164943 67.027836,12.943966 67.09659,12.775568 C 67.234409,12.437999 67.046995,11.561062 66.84659,11.619318 z M 66.06534,15.556818 C 65.894268,15.746319 65.683854,17.078309 65.81534,17.150568 C 66.109197,17.31206 66.532282,16.998223 66.56534,16.588068 C 66.605611,16.088459 66.248222,15.354233 66.06534,15.556818 z M 64.37784,18.369318 C 64.226268,18.348384 63.940144,18.516645 63.50284,18.869318 C 63.083596,19.207431 63.02943,19.280551 63.25284,19.431818 C 63.642082,19.695362 64.244084,19.479025 64.40909,18.994318 C 64.543392,18.599797 64.529412,18.390252 64.37784,18.369318 z"
             id="path4061" />
          <path
             style="fill:#000000"
             d="M 49.28125,9.03125 C 49.43757,8.9160768 49.596927,8.7700245 49.75,8.8125 C 49.847717,8.8396165 50.049214,9.3567299 50.21875,9.9375 C 50.67397,11.496919 51.33638,12.711573 52.1875,13.6875 C 52.603512,14.164515 53.231579,15.055296 53.59375,15.65625 C 53.955919,16.257204 54.428405,16.968081 54.65625,17.25 C 55.338318,18.093944 56.831123,19.124399 58.25,19.71875 C 58.984359,20.026365 59.573649,20.337103 59.59375,20.40625 C 59.637975,20.558388 60.461733,20.686631 60.78125,20.59375 C 60.907403,20.557077 60.993991,20.461828 60.96875,20.375 C 60.943512,20.288173 60.794953,20.231846 60.625,20.28125 C 60.452461,20.331406 60.029107,20.194254 59.6875,19.9375 C 59.351016,19.684595 58.644728,19.243809 58.125,18.96875 C 57.244413,18.502714 57.163689,18.376532 56.6875,17.34375 C 56.406452,16.734194 55.908162,15.877088 55.59375,15.4375 C 55.231905,14.931595 54.743887,13.884112 54.25,12.5625 C 53.820855,11.414129 53.162765,9.7619085 52.8125,8.875 C 52.046511,6.9354318 51.485705,4.9870757 51.65625,4.9375 C 51.724356,4.9177018 51.95261,5.06052 52.1875,5.28125 C 52.77607,5.8343489 52.812293,5.6460588 52.25,4.84375 C 51.991018,4.4742231 51.782972,4.1474794 51.8125,4.09375 C 51.842028,4.0400193 52.3861,3.8237657 53,3.625 C 53.613896,3.4262342 54.112697,3.2214289 54.09375,3.15625 C 54.062069,3.0472642 53.6581,3.0826051 53.375,3.21875 C 53.160579,3.3218683 52.51913,3.125042 52.5625,2.96875 C 52.585826,2.8846917 52.808433,2.6948661 53.0625,2.5625 C 53.645554,2.2587411 53.467333,1.9657463 52.6875,1.9375 C 52.365786,1.9258461 52.053498,1.8586746 52,1.78125 C 51.946503,1.7038272 52.240644,1.251929 52.625,0.78125 C 53.009357,0.31057187 53.321144,-0.095260762 53.3125,-0.125 C 53.303856,-0.15474056 52.880585,-0.01298382 52.40625,0.1875 L 51.5625,0.5625 L 51.5,0 C 51.417298,-0.96490296 52.114294,-2.7888733 53.3125,-4.78125 C 53.946687,-5.8357756 54.436857,-6.8009626 54.40625,-6.90625 C 54.340907,-7.1310335 55.136638,-8.3471918 55.9375,-9.25 C 56.342164,-9.7061785 56.559794,-9.8373558 56.71875,-9.75 C 57.068023,-9.5580568 57.126349,-9.618904 57.28125,-10.46875 C 57.411465,-11.183162 57.556646,-11.411411 58.75,-12.53125 C 60.179192,-13.872399 61.922191,-15.021356 63.03125,-15.34375 C 63.406798,-15.452919 63.833304,-15.661042 63.96875,-15.8125 C 64.159524,-16.02582 64.404191,-16.086316 65.09375,-16.125 C 66.077916,-16.180212 66.652379,-15.974581 66.78125,-15.53125 C 66.842294,-15.321277 66.979089,-15.287163 67.28125,-15.375 C 67.677298,-15.490127 67.698826,-15.469565 67.53125,-15.125 C 67.322351,-14.695488 67.413721,-14.341056 67.75,-14.15625 C 67.936577,-14.053715 67.928113,-13.944502 67.75,-13.59375 C 67.623041,-13.343725 67.498052,-12.931428 67.46875,-12.6875 C 67.439449,-12.443571 67.387416,-12.12269 67.34375,-11.96875 C 67.201738,-11.468121 67.067443,-10.479241 67.125,-10.28125 C 67.15589,-10.17498 67.09882,-9.9584505 67,-9.8125 C 66.885234,-9.6429957 66.919522,-9.2731131 67.0625,-8.78125 C 67.424934,-7.5344626 67.775808,-8.0380921 67.59375,-9.53125 C 67.54397,-9.9394584 67.674138,-10.46549 67.9375,-11 C 68.162789,-11.457235 68.376823,-12.089249 68.4375,-12.40625 C 68.49817,-12.723247 68.690104,-13.053326 68.84375,-13.15625 C 69.314472,-13.471581 69.727795,-14.608579 69.75,-15.625 C 69.769645,-16.524377 69.750092,-16.605477 69.375,-17 C 68.918116,-17.48056 68.146362,-17.610587 66.71875,-17.46875 C 65.403122,-17.338041 62.070839,-16.051273 60.28125,-14.96875 C 58.722879,-14.026092 56.494564,-12.052806 55.25,-10.5 C 53.337319,-8.1136041 51.677209,-4.7522756 50.78125,-1.46875 C 50.243737,0.50112223 49.931025,0.97445603 49.5625,0.34375 C 49.493295,0.22530991 49.357559,0.32120661 49.28125,0.28125 L 49.28125,9.03125 z M 67.53125,-6.59375 C 67.351908,-6.6923042 67.365889,-6.4861509 67.59375,-5.8125 C 67.91318,-4.868168 67.955,-4.8502117 68.03125,-5.125 C 68.121506,-5.4502833 67.770633,-6.4621939 67.53125,-6.59375 z M 56.90625,-3.625 C 56.846324,-3.8311525 56.74235,-3.7836695 56.3125,-3.375 C 56.000224,-3.0781115 55.449374,-2.1450427 55.625,-2.21875 C 55.65899,-2.2330151 55.962479,-2.5404202 56.3125,-2.875 C 56.662524,-3.2095794 56.931007,-3.5398366 56.90625,-3.625 z M 55.15625,-1.75 C 55.026006,-1.7121401 54.903422,-1.6024274 54.875,-1.5 C 54.846576,-1.397573 54.932259,-1.3371405 55.0625,-1.375 C 55.192742,-1.4128609 55.315328,-1.5225735 55.34375,-1.625 C 55.372173,-1.7274265 55.286491,-1.7878604 55.15625,-1.75 z M 67.6875,5.28125 C 67.538434,5.2398892 67.534314,5.3560101 67.6875,5.65625 C 67.812736,5.901708 67.87095,6.3280786 67.8125,6.625 C 67.69399,7.2270551 67.74187,7.294357 68.0625,6.96875 C 68.330242,6.6968538 68.040245,5.3791309 67.6875,5.28125 z M 67.5625,8.25 C 67.499493,8.3198022 67.471431,8.5919491 67.5,8.84375 C 67.528574,9.0955474 67.552063,9.4229118 67.53125,9.59375 C 67.505232,9.8072899 67.562432,9.88919 67.71875,9.84375 C 67.843808,9.8073959 67.958944,9.730961 68,9.65625 C 68.112888,9.450836 67.694262,8.104044 67.5625,8.25 z M 66.84375,12.375 C 66.755362,12.729773 66.896375,13.089178 67.03125,12.84375 C 67.076157,12.762034 67.086474,12.555124 67.03125,12.375 C 66.938545,12.072615 66.919649,12.070339 66.84375,12.375 z M 66.3125,16.0625 C 66.220042,16.052221 66.113197,16.214424 66.0625,16.5625 C 66.010288,16.920981 66.04508,17.019234 66.21875,16.96875 C 66.337842,16.934131 66.424722,16.777663 66.4375,16.625 C 66.466836,16.274549 66.404958,16.072779 66.3125,16.0625 z M 64.21875,18.78125 C 64.058746,18.69332 63.513167,19.11154 63.5625,19.28125 C 63.621592,19.484534 64.213471,19.306758 64.28125,19.0625 C 64.311563,18.953259 64.27756,18.813571 64.21875,18.78125 z"
             id="path4153" />
        </g>
        <path
           transform="matrix(1.3011528,0,0,1.3011528,-10.584341,-5.0360514)"
           id="path2463"
           d="M 32.977187,45.005988 C 32.977187,45.005988 28.966146,39.042952 28.966146,39.042952 C 28.935106,39.031116 28.927816,39.054508 28.95368,39.133534 C 28.9825,39.221592 28.970263,39.257407 28.93087,39.219481 C 28.891429,39.181509 28.491409,38.628686 28.057311,37.996066 C 26.172711,35.249596 23.548509,31.673987 21.208841,29.354889 C 20.18076,28.335845 18.517317,26.986856 17.146144,26.202638 C 15.665696,25.355922 14.878587,25.145239 14.2861,25.116026 C 13.889487,25.09647 13.80348,25.115247 13.805801,25.281924 C 13.808391,25.468015 13.858977,25.500282 14.509875,26.059913 C 14.963618,26.450034 15.341954,26.765954 15.583419,26.929487 C 15.786999,27.067363 16.154708,27.387843 16.40534,27.643888 C 16.65673,27.900708 17.021357,28.256302 17.219537,28.429249 C 17.512925,28.685283 17.608046,28.800486 17.800532,29.115764 C 17.931463,29.330221 18.22795,29.721307 18.434937,29.970932 C 18.705347,30.29705 18.821687,30.501742 18.879087,30.696417 C 18.991762,31.078552 19.148668,31.374678 19.389651,31.68712 C 19.502844,31.833876 19.739025,32.285126 19.906749,32.682436 C 20.177347,33.323441 20.27448,33.4979 20.730054,34.13848 C 21.473307,35.183564 22.140874,35.941275 22.966446,36.660195 C 23.327582,36.974676 23.649528,37.245903 23.680654,37.25003 C 23.711696,37.254147 23.777002,37.328969 23.818429,37.40792 C 23.859929,37.487007 23.799669,37.609546 23.708861,37.712904 C 23.429528,38.030843 23.44726,38.284343 23.789548,39.374656 C 24.069715,40.267091 24.174476,40.530859 24.407831,40.841134 C 25.104709,41.767716 25.24129,41.980645 25.531237,42.601506 C 25.860835,43.307272 26.015636,43.523064 26.594414,44.101526 C 26.93081,44.437738 26.960047,44.48978 27.293062,45.123258 C 28.19058,46.83057 28.15068,46.748045 28.656073,47.171982 C 29.219659,47.644732 29.382402,47.859954 29.774567,48.664953 C 30.218443,49.576101 30.707657,50.156612 31.098365,50.266929 C 31.451455,50.366622 32.100213,50.872796 32.61889,51.421828 C 33.064396,51.893409 33.30866,52.000371 33.581583,51.852089 C 33.713425,51.78046 34.010026,51.83007 34.464695,51.987557 C 35.391556,52.308599 35.515967,52.229301 35.447974,51.510147 C 35.418182,51.195045 35.407025,50.891798 35.438358,50.843484 C 35.46951,50.795449 35.434592,50.583446 35.35706,50.370262 C 35.280535,50.159844 35.238318,49.913205 35.254955,49.80909 C 35.303036,49.508158 33.816435,46.491111 33.194321,45.426427 C 33.065389,45.205773 33.023175,45.109961 32.977187,45.005988 C 32.977187,45.005988 32.977187,45.005988 32.977187,45.005988"
           style="opacity:0.22999992;fill:#000000;fill-opacity:1;filter:url(#filter6745)" />
        <g
           id="g4339"
           transform="matrix(2.1782051,-6.461857e-2,7.7596263e-2,1.8139081,-7.7834509,45.860562)">
          <g
             transform="translate(-14.727273,-7.0909091)"
             id="g4197">
            <path
               id="path3315"
               d="M 36.824191,9.1714698 C 36.824191,9.1714698 33.653255,1.6373238 33.653255,1.6373238 C 33.618071,1.6174746 33.603205,1.6394944 33.614993,1.7265584 C 33.628128,1.8235733 33.603981,1.8569571 33.565164,1.8083715 C 33.526301,1.7597264 33.174342,1.0961129 32.795509,0.35706922 C 31.150835,-2.8514261 28.735726,-6.8057322 26.591,-9.7962372 C 25.648579,-11.110305 24.117109,-13.05429 22.870998,-14.510895 C 21.525579,-16.083583 20.821182,-16.808363 20.238719,-17.218324 C 19.848816,-17.492755 19.759535,-17.534963 19.703132,-17.369254 C 19.640158,-17.184244 19.667867,-17.109094 20.140923,-16.145742 C 20.470692,-15.474185 20.76515,-14.938614 20.967815,-14.637689 C 21.138684,-14.383977 21.429808,-13.861573 21.621917,-13.474228 C 21.814608,-13.085709 22.107489,-12.547976 22.275731,-12.27961 C 22.524798,-11.882318 22.597852,-11.724608 22.722336,-11.323445 C 22.807012,-11.050568 23.03046,-10.530383 23.196772,-10.194919 C 23.414044,-9.7566625 23.4921,-9.5078973 23.503807,-9.2911866 C 23.526787,-8.8657947 23.627098,-8.5087524 23.824909,-8.1084982 C 23.917823,-7.9204951 24.073369,-7.3858617 24.165688,-6.9319743 C 24.314631,-6.1996908 24.383681,-5.9910099 24.766242,-5.2140195 C 25.390378,-3.9463838 26.016884,-3.0196195 26.85194,-2.1096056 C 27.217224,-1.7115328 27.546609,-1.3696234 27.583911,-1.3584013 C 27.621112,-1.3472099 27.683004,-1.2582231 27.714501,-1.1706591 C 27.746054,-1.0829421 27.641537,-0.97538965 27.504093,-0.89370181 C 27.0813,-0.64242299 27.039493,-0.38567373 27.193952,0.77192975 C 27.320378,1.7194436 27.385629,2.0033398 27.59725,2.3611528 C 28.229224,3.4297026 28.344154,3.6699808 28.547153,4.3482734 C 28.777912,5.1193258 28.915167,5.3646346 29.473679,6.0751561 C 29.798296,6.4881222 29.821305,6.5467244 30.062759,7.257689 C 30.713512,9.1738362 30.677836,9.0875791 31.16242,9.660785 C 31.702802,10.299992 31.835348,10.569828 32.069654,11.500172 C 32.334857,12.553195 32.723466,13.313618 33.127898,13.587967 C 33.493391,13.835902 34.064189,14.625974 34.455478,15.423372 C 34.791567,16.10828 35.01161,16.346358 35.344162,16.353269 C 35.504808,16.356609 35.801523,16.568918 36.215924,16.994613 C 37.060698,17.862409 37.196508,17.888199 37.37598,17.135673 C 37.454616,16.805948 37.547972,16.497832 37.596634,16.469774 C 37.645015,16.441877 37.683218,16.208639 37.677183,15.946899 C 37.671227,15.688555 37.712173,15.415136 37.76543,15.320816 C 37.919358,15.048197 37.328285,11.107009 36.944659,9.7086851 C 36.865153,9.418883 36.845492,9.3004219 36.824191,9.1714698 C 36.824191,9.1714698 36.824191,9.1714698 36.824191,9.1714698"
               style="fill:#4ab0e8;fill-opacity:1" />
            <path
               id="path4133"
               d="M 34.104923,14.401779 C 33.988237,14.445688 34.77731,15.991078 34.986076,16.125201 C 35.188953,16.255541 35.723544,16.230326 35.65935,16.100314 C 35.635445,16.0519 35.496168,15.917382 35.331144,15.765205 C 35.165071,15.612061 34.965625,15.3715 34.906641,15.251757 C 34.773956,14.982394 34.197454,14.366959 34.104923,14.401779 C 34.104923,14.401779 34.104923,14.401779 34.104923,14.401779"
               style="fill:#35648f;fill-opacity:1" />
            <path
               id="path4131"
               d="M 32.121717,11.274524 C 32.065232,11.420543 32.379425,12.411219 32.640751,12.914477 C 32.843352,13.304643 33.080772,13.530368 33.23864,13.484972 C 33.317104,13.462407 33.255516,13.274534 33.010268,12.773865 C 32.833271,12.412529 32.596254,11.93403 32.484828,11.701667 C 32.237945,11.186823 32.182672,11.116944 32.121717,11.274524 C 32.121717,11.274524 32.121717,11.274524 32.121717,11.274524"
               style="fill:#35648f;fill-opacity:1" />
            <path
               id="path3313"
               d="M 36.793374,9.0982483 C 36.793374,9.0982483 33.761952,1.8955885 33.761952,1.8955885 C 33.757344,1.8959802 33.733249,1.852024 33.730809,1.8575414 C 33.716918,1.8889582 33.691737,1.9350943 33.677712,1.9667982 C 33.642993,2.0452695 33.479215,1.760483 32.486028,-0.14259166 C 31.026726,-2.9388007 29.359058,-5.7303582 27.545652,-8.3894329 C 26.246837,-10.293942 24.324372,-12.791365 22.694402,-14.677152 C 21.33277,-16.252487 20.694683,-16.9125 20.184907,-17.26926 C 19.679332,-17.623081 19.607664,-17.33434 19.992855,-16.524837 C 20.455137,-15.553323 20.791793,-14.924917 21.059061,-14.555212 C 21.212083,-14.34354 21.46906,-13.895224 21.695894,-13.438065 C 21.906036,-13.014549 22.203817,-12.474568 22.348197,-12.246382 C 22.54794,-11.9307 22.66464,-11.67436 22.827267,-11.201908 C 22.945718,-10.857795 23.159652,-10.332199 23.309713,-10.019698 C 23.509635,-9.6033635 23.598159,-9.3189084 23.616755,-9.0167982 C 23.630939,-8.7863754 23.695482,-8.4792396 23.772211,-8.3211995 C 23.991431,-7.8696619 24.243134,-7.0797934 24.319958,-6.5794814 C 24.380013,-6.1883787 24.458761,-5.9708157 24.85537,-5.1837859 C 25.140377,-4.6182204 25.397618,-4.162485 25.506418,-4.0409378 C 25.605491,-3.9302579 25.789892,-3.6481586 25.897273,-3.4309499 C 26.187804,-2.8432693 26.835706,-2.2008199 27.457565,-1.8819776 C 27.815632,-1.6983865 28.100874,-1.473132 28.540291,-1.0277858 C 28.862937,-0.70078521 29.186255,-0.35570006 29.251227,-0.26456661 C 29.31643,-0.17310911 29.411348,-0.12000596 29.46855,-0.14554404 C 29.545517,-0.17990462 29.598162,-0.14375874 29.682865,0.02529981 C 29.827951,0.31487619 29.861465,0.33007616 28.928049,-0.36680955 C 28.928049,-0.36680955 28.093623,-0.97753369 28.093623,-0.97753369 C 28.093623,-0.97753369 27.842576,-0.83170373 27.842576,-0.83170373 C 27.361814,-0.5474104 27.211669,-0.17652461 27.272774,0.69362 C 27.345662,1.7315593 27.439851,2.0485733 27.97957,2.9143299 C 28.344948,3.500428 28.405568,3.628499 28.612806,4.3384127 C 28.858216,5.1790899 29.057886,5.5421739 29.54261,6.0388889 C 29.842585,6.3462835 30.033731,6.7678705 30.309806,7.7383923 C 30.625802,8.8492511 30.806683,9.2139311 31.259258,9.6260268 C 31.711978,10.038254 31.753998,10.02308 31.494672,9.6044141 C 31.382544,9.42339 31.187078,8.9903285 31.04255,8.6132062 C 30.898885,8.2383366 30.453063,7.2346341 30.049393,6.3862819 C 29.395593,5.0122592 29.311664,4.809134 29.319122,4.5361094 C 29.319122,4.5361094 29.327237,4.2434177 29.327237,4.2434177 C 29.327237,4.2434177 29.066028,3.998224 29.066028,3.998224 C 28.700778,3.6527652 28.488551,3.2036887 28.514409,2.8334571 C 28.531298,2.5916425 28.482906,2.4795764 28.297454,2.2145446 C 28.05364,1.866106 28.05472,1.7001942 28.27666,1.3677203 C 28.355962,1.2489218 28.335963,1.1582052 28.194806,0.98149798 C 28.049999,0.80022266 28.075257,0.75423247 28.252124,0.67200739 C 28.487326,0.56265991 29.639103,0.78627245 29.958096,0.99973559 C 29.958096,0.99973559 30.161575,1.1404235 30.161575,1.1404235 C 30.161575,1.1404235 30.061294,1.1820238 30.061294,1.1820238 C 29.909652,1.2581213 30.045455,1.4760499 30.404348,1.7330475 C 30.581667,1.8600235 30.810659,2.0805363 30.901386,2.2000493 C 31.040435,2.3832176 31.225201,2.5158827 31.433806,2.5962533 C 31.459058,2.6059828 31.521383,2.6942315 31.575236,2.8013215 C 31.688059,3.0256797 31.652551,3.1672163 31.467388,3.1382918 C 31.39585,3.1271172 31.358932,3.1796584 31.378012,3.2500132 C 31.415747,3.3891672 31.535034,3.48133 31.94394,3.6764195 C 32.08695,3.7446487 32.215764,3.8028771 32.258195,3.8442342 C 32.388161,3.9709096 32.422532,4.2879166 32.309073,4.3662727 C 32.169283,4.4628102 32.286289,4.7072164 32.482362,4.7251162 C 32.589482,4.7348956 32.700098,4.8445361 32.87121,5.1039753 C 33.05961,5.3896284 33.143049,5.4488292 33.297193,5.4657395 C 33.470014,5.4846974 33.862625,5.7316718 33.75027,5.7484643 C 33.723776,5.7524246 33.648955,5.9452076 33.586225,6.1810054 C 33.476415,6.5937696 33.484188,6.6329198 33.663941,6.7583951 C 33.785422,6.843194 33.902812,6.8434324 33.977936,6.7475319 C 34.201444,6.462204 34.277052,6.4519753 34.413114,6.7208707 C 34.482199,6.8574005 34.568083,7.116302 34.613341,7.2995907 C 34.6972,7.6392093 35.074475,8.7836697 35.152509,8.9383065 C 35.175776,8.9844119 35.158943,8.7821881 35.131759,8.5221063 C 35.07434,7.9727662 35.170051,8.0439394 35.36734,8.6939443 C 35.44634,8.9542274 35.615742,9.4597604 35.731175,9.8053524 C 35.847569,10.153815 36.038409,10.86127 36.161797,11.389512 C 36.287363,11.927078 36.515003,12.880399 36.665202,13.499294 C 36.835549,14.201213 36.938445,14.786771 36.913222,14.982144 C 36.890256,15.160053 36.843796,15.62952 36.810927,16.024918 C 36.750694,16.74951 36.736219,16.755292 36.417221,16.621688 C 36.234584,16.545194 36.082538,16.501549 36.091065,16.550934 C 36.123287,16.737567 36.845586,17.566151 37.000674,17.595963 C 37.092985,17.613708 37.23348,17.376097 37.313018,17.005726 C 37.387114,16.660695 37.478973,16.364523 37.523012,16.339579 C 37.566824,16.314763 37.602567,16.044236 37.604494,15.767518 C 37.606393,15.494798 37.64283,15.246602 37.694733,15.220363 C 37.865204,15.134183 37.219397,10.864902 36.860666,9.5670687 C 36.758052,9.1958285 36.791937,9.185088 36.793374,9.0982483 C 36.793374,9.0982483 36.793374,9.0982483 36.793374,9.0982483 M 28.125728,-2.0477504 C 28.482785,-1.6531728 28.385922,-1.6766486 27.793698,-2.0958377 C 27.271991,-2.4651121 26.823875,-2.8743931 26.901313,-2.9163789 C 27.000079,-2.9699285 27.820119,-2.385475 28.125728,-2.0477504 C 28.125728,-2.0477504 28.125728,-2.0477504 28.125728,-2.0477504 M 28.319709,-0.22953874 C 28.384505,-0.1770822 28.352187,-0.15539331 28.241313,-0.18726471 C 28.129509,-0.21940255 28.081886,-0.24466862 28.12846,-0.26529227 C 28.174792,-0.28580755 28.254713,-0.28215686 28.319709,-0.22953874 C 28.319709,-0.22953874 28.319709,-0.22953874 28.319709,-0.22953874 M 29.47199,1.0422887 C 29.420768,1.0306327 29.420758,1.1076819 29.461003,1.188486 C 29.501272,1.2693391 29.576912,1.34805 29.62788,1.3590713 C 29.678639,1.3700473 29.678123,1.2928385 29.638103,1.2125839 C 29.598106,1.1323765 29.523002,1.0538962 29.47199,1.0422887 C 29.47199,1.0422887 29.47199,1.0422887 29.47199,1.0422887 M 31.927869,6.0728261 C 31.879174,6.1714967 31.91773,6.2846597 32.000015,6.2862966 C 32.029474,6.2868826 32.021957,6.1966915 31.999874,6.1146053 C 31.976904,6.0292223 31.952703,6.0225043 31.927869,6.0728261 C 31.927869,6.0728261 31.927869,6.0728261 31.927869,6.0728261"
               style="fill:#35648f;fill-opacity:1" />
            <path
               id="path4077"
               d="M 34.323386,14.731654 C 34.234618,14.76687 34.618467,15.674786 34.831621,15.923173 C 35.060517,16.189905 35.334684,16.115739 35.194924,15.832018 C 35.06428,15.566801 34.386651,14.706553 34.323386,14.731654 C 34.323386,14.731654 34.323386,14.731654 34.323386,14.731654"
               style="fill:#294269;fill-opacity:1" />
            <path
               id="path4075"
               d="M 32.320289,11.655329 C 32.239474,11.568947 32.231218,11.667073 32.306755,11.983006 C 32.45124,12.587311 32.818144,13.263249 33.013415,13.28064 C 33.141175,13.292018 33.120704,13.205818 32.792631,12.514665 C 32.567818,12.041052 32.400904,11.741497 32.320289,11.655329 C 32.320289,11.655329 32.320289,11.655329 32.320289,11.655329"
               style="fill:#294269;fill-opacity:1" />
            <path
               id="path4073"
               d="M 30.401293,7.5780507 C 30.276286,7.582436 30.51557,8.3992073 30.782498,8.8960379 C 31.079828,9.449455 31.298542,9.6201458 31.129605,9.1663815 C 30.817969,8.3293217 30.470331,7.57563 30.401293,7.5780507 C 30.401293,7.5780507 30.401293,7.5780507 30.401293,7.5780507"
               style="fill:#294269;fill-opacity:1" />
            <path
               id="path4071"
               d="M 27.480803,0.15268193 C 27.370506,0.023805747 27.308067,0.14467297 27.31874,0.63397867 C 27.341364,1.6711452 27.439896,2.0062942 27.982116,2.8428993 C 28.390743,3.4733793 28.444542,3.5692185 28.616046,4.1940469 C 28.846965,5.0353394 29.020801,5.4107612 29.388419,5.8039016 C 29.617114,6.0484742 29.654336,6.0495704 29.588068,5.8645839 C 29.385871,5.3001531 28.980562,4.4053503 28.446427,3.3284792 C 27.942236,2.3119794 27.872379,2.1169813 27.823968,1.7155507 C 27.794039,1.4673609 27.713117,1.1553571 27.645284,1.0173899 C 27.577519,0.87956106 27.536267,0.6427369 27.565935,0.52129751 C 27.60349,0.36758174 27.590761,0.28116058 27.480803,0.15268193 C 27.480803,0.15268193 27.480803,0.15268193 27.480803,0.15268193"
               style="fill:#294269;fill-opacity:1" />
            <path
               id="path4069"
               d="M 28.242887,-0.64927839 C 28.18306,-0.73265417 28.108162,-0.77732867 28.077256,-0.74685289 C 27.997506,-0.66820938 28.045944,-0.60547276 28.206543,-0.56088923 C 28.281194,-0.54016598 28.302654,-0.56598906 28.242887,-0.64927839 C 28.242887,-0.64927839 28.242887,-0.64927839 28.242887,-0.64927839"
               style="fill:#294269;fill-opacity:1" />
            <path
               id="path3311"
               d="M 36.710481,8.8995609 C 36.710481,8.8995609 33.852256,2.1085152 33.852256,2.1085152 C 33.805576,2.0589462 33.740866,1.9476058 33.7013,1.9666441 C 33.7013,1.9666441 33.60904,2.0033225 33.60904,2.0033225 C 33.60904,2.0033225 32.694448,0.26194501 32.694448,0.26194501 C 31.453178,-2.1031632 30.095269,-4.4488074 28.711145,-6.6149823 C 28.116211,-7.5460638 26.71978,-9.5659091 26.046869,-10.471757 C 24.138935,-13.040147 21.284963,-16.396366 20.338822,-17.139365 C 19.897444,-17.485978 19.862638,-17.489123 19.825319,-17.270847 C 19.789795,-17.063081 19.831488,-16.927005 20.211025,-16.126659 C 20.531687,-15.450468 20.758631,-15.042122 21.03575,-14.622795 C 21.242827,-14.30945 21.509447,-13.834368 21.64615,-13.544501 C 21.783257,-13.253778 22.088467,-12.690701 22.314291,-12.309145 C 22.662786,-11.720322 22.748997,-11.546963 22.879215,-11.128953 C 22.96428,-10.855887 23.16862,-10.354317 23.336414,-10.015997 C 23.578391,-9.5281045 23.636617,-9.3326794 23.643737,-9.0468668 C 23.649604,-8.8113966 23.764014,-8.4256923 23.949481,-7.9767948 C 24.274833,-7.1893317 24.377793,-6.8426779 24.364931,-6.5297258 C 24.352885,-6.2365831 24.543997,-5.7662003 24.898797,-5.2098184 C 25.277197,-4.6164276 25.248355,-4.7548453 24.803382,-5.9918172 C 24.606989,-6.5377643 24.479996,-6.9909456 24.517248,-7.0070196 C 24.554343,-7.0230253 24.520879,-7.2704743 24.432396,-7.5697476 C 24.344596,-7.8667109 24.319028,-8.1071375 24.374994,-8.1157542 C 24.450693,-8.1274083 24.419485,-8.2409077 24.26071,-8.5199585 C 24.144129,-8.7248547 24.024138,-8.9923304 23.98479,-9.1357474 C 23.945604,-9.2785787 23.841113,-9.5727966 23.762921,-9.7657802 C 23.67644,-9.9792191 23.677614,-10.127462 23.748346,-10.181473 C 23.879371,-10.28152 23.859901,-10.323786 23.573324,-10.68243 C 23.449686,-10.83716 23.241861,-11.195384 23.069352,-11.541886 C 22.812414,-12.057973 22.791798,-12.12792 22.918745,-12.103395 C 22.997704,-12.088139 23.212311,-11.971195 23.386053,-11.848032 C 23.558062,-11.726098 23.685063,-11.642814 23.67573,-11.661464 C 23.666398,-11.680111 23.378447,-11.989614 23.030535,-12.351378 C 22.37837,-13.029508 22.218752,-13.262673 22.128666,-13.64799 C 22.064588,-13.922063 22.419326,-13.682447 23.107771,-12.996407 C 23.632745,-12.473266 24.91284,-11.009273 24.996307,-10.838074 C 25.019945,-10.789591 25.042243,-10.677057 25.055729,-10.581853 C 25.078845,-10.418671 25.047782,-10.436108 24.596417,-10.827059 C 24.026344,-11.32083 23.982515,-11.31087 24.417471,-10.832342 C 25.554472,-9.5814394 26.345912,-8.6238897 26.426632,-8.394738 C 26.465941,-8.283146 26.382301,-8.295644 26.092192,-8.4737776 C 25.657375,-8.740765 25.65735,-8.7155128 26.07225,-8.0586802 C 26.211147,-7.8387913 26.412904,-7.47636 26.529947,-7.2443383 C 26.647194,-7.0119126 26.797763,-6.7643984 26.848782,-6.7095425 C 26.899702,-6.6547929 27.00012,-6.4860151 27.071037,-6.3450909 C 27.14203,-6.2040167 27.248284,-6.0539566 27.319726,-5.9890215 C 27.390924,-5.9243076 27.4809,-5.8088327 27.517975,-5.7352364 C 27.560514,-5.6507936 27.471423,-5.6643252 27.252658,-5.8024081 C 26.925388,-6.0089781 26.853103,-5.9625248 27.11556,-5.684039 C 27.176295,-5.6195953 27.330243,-5.403811 27.454406,-5.2070502 C 27.599684,-4.976829 27.695122,-4.8690714 27.728995,-4.8919198 C 27.759481,-4.9124824 27.870777,-4.7910118 27.98332,-4.6249036 C 28.089432,-4.4682885 28.219366,-4.3240571 28.267226,-4.3039063 C 28.314913,-4.2838287 28.385383,-4.2065317 28.42236,-4.1331834 C 28.459356,-4.059796 28.57753,-3.9184717 28.696793,-3.805794 C 28.9564,-3.5605192 29.56635,-2.70863 29.902498,-2.1281661 C 29.902498,-2.1281661 30.159176,-1.6954081 30.159176,-1.6954081 C 30.159176,-1.6954081 29.894974,-1.9151297 29.894974,-1.9151297 C 29.755418,-2.0275387 29.553743,-2.1564807 29.428785,-2.2273579 C 29.21735,-2.3472853 29.246821,-2.3138629 29.851163,-1.6949781 C 30.205353,-1.3322634 30.503634,-1.0304396 30.520683,-1.0249195 C 30.597223,-1.0001375 31.235344,-0.24001256 31.320294,-0.072552211 C 31.438123,0.15972126 31.437699,0.17128007 31.089622,-0.13398079 C 30.626547,-0.54009277 30.529094,-0.52950675 30.73719,-0.070677731 C 30.843145,0.16294107 30.963656,0.37490305 31.049365,0.47310094 C 31.286239,0.74449157 31.320552,0.8716359 31.14465,0.82711813 C 31.14465,0.82711813 30.978809,0.7926465 30.978809,0.7926465 C 30.978809,0.7926465 31.433395,1.2880586 31.433395,1.2880586 C 31.770975,1.6539965 31.865283,1.7760342 31.815693,1.7973885 C 31.734098,1.8325216 30.777722,1.2152679 29.973788,0.60522006 C 29.319219,0.10851374 29.018916,-0.035421319 29.138235,0.20385023 C 29.177197,0.28197921 29.301816,0.40188525 29.419451,0.47437725 C 29.808586,0.71418284 30.594874,1.2978411 31.254616,1.8218446 C 31.703848,2.1786503 31.985823,2.443953 32.26841,2.8025409 C 32.486905,3.0798007 32.701212,3.31252 32.744341,3.3192935 C 32.905765,3.3446465 33.236163,3.6865811 33.331663,3.9249235 C 33.394859,4.0826442 33.517951,4.2640712 33.716173,4.4772147 C 34.065439,4.8527722 34.09576,4.9654343 34.039831,5.5225836 C 34.018223,5.7378434 34.007181,5.9304828 34.016113,5.9481346 C 34.025045,5.9657889 34.087315,5.9931921 34.141621,5.9893112 C 34.218161,5.9838418 34.266865,6.0464193 34.379457,6.2851209 C 34.546799,6.6398972 34.590956,6.6631129 34.571422,6.3856393 C 34.563809,6.2774909 34.608162,6.187393 34.664546,6.1889427 C 34.763383,6.1916588 34.775455,6.216042 34.939297,6.8328802 C 35.033487,7.1874911 35.338753,8.2838529 35.635077,9.2996629 C 35.940145,10.345449 36.384589,12.064665 36.622883,13.120844 C 37.009974,14.836524 37.068777,15.189975 36.982025,15.414854 C 36.925256,15.562014 36.869218,15.955884 36.857424,16.307578 C 36.838754,16.864323 36.80435,16.952884 36.611966,16.874774 C 36.344236,16.76607 36.379971,17.003691 36.684123,17.327772 C 36.967527,17.629747 37.169984,17.450114 37.261619,16.874404 C 37.302388,16.618269 37.381788,16.3904 37.436316,16.359608 C 37.490497,16.329012 37.541724,16.087722 37.543896,15.818887 C 37.546036,15.553819 37.59473,15.268248 37.646639,15.173253 C 37.814954,14.865234 37.233071,11.105345 36.747524,9.1988545 C 36.701876,9.0196184 36.714453,8.981069 36.710481,8.8995609 C 36.710481,8.8995609 36.710481,8.8995609 36.710481,8.8995609 M 24.984632,-9.3730386 C 24.894154,-9.4224419 24.918185,-9.3828612 25.106512,-9.1651016 C 25.362067,-8.8696093 25.52929,-8.7460735 25.441952,-8.9200699 C 25.374851,-9.0537502 25.142505,-9.2868365 24.984632,-9.3730386 C 24.984632,-9.3730386 24.984632,-9.3730386 24.984632,-9.3730386"
               style="fill:#294269;fill-opacity:1" />
            <path
               id="path4169"
               d="M 34.725432,15.277824 C 34.705626,15.23756 34.65364,15.246102 34.605071,15.266954 C 34.479129,15.321018 34.829486,15.902932 34.998526,15.921611 C 35.099972,15.932822 35.077317,15.849098 34.941407,15.639419 C 34.841983,15.486028 34.745244,15.3181 34.725432,15.277824 C 34.725432,15.277824 34.725432,15.277824 34.725432,15.277824"
               style="fill:#000000" />
            <path
               id="path4167"
               d="M 32.397079,12.08083 C 32.486866,12.449984 32.849245,13.191501 32.928694,13.167784 C 32.96282,13.157596 32.828857,12.82737 32.649948,12.463061 C 32.408705,11.971824 32.346637,11.873442 32.397079,12.08083 C 32.397079,12.08083 32.397079,12.08083 32.397079,12.08083"
               style="fill:#000000" />
            <path
               id="path4165"
               d="M 36.627239,12.388654 C 36.612483,12.393327 36.747909,13.111044 36.925165,13.991478 C 37.210532,15.408905 37.238462,15.665767 37.117608,15.728367 C 37.038597,15.769293 36.950686,16.085291 36.934221,16.446862 C 36.913246,16.907412 36.858563,17.114375 36.742627,17.090132 C 36.633001,17.067206 36.610775,17.115891 36.687212,17.217973 C 36.862867,17.452557 37.12263,17.196735 37.212807,16.699163 C 37.255336,16.464501 37.329619,16.22714 37.38811,16.189095 C 37.446186,16.151318 37.487862,15.958424 37.472582,15.747231 C 37.457448,15.538049 37.490022,15.201046 37.54133,15.014691 C 37.634677,14.675642 37.451611,13.295936 37.295693,13.117531 C 37.250629,13.065969 37.232485,13.119083 37.249544,13.233674 C 37.302627,13.59024 37.072167,13.35407 36.845035,12.827585 C 36.737036,12.577248 36.64197,12.383988 36.627239,12.388654 C 36.627239,12.388654 36.627239,12.388654 36.627239,12.388654"
               style="fill:#000000" />
            <path
               id="path4163"
               d="M 30.555925,8.1426079 C 30.532752,8.3033913 30.787999,8.9344799 30.919196,9.0447474 C 30.978494,9.0945853 30.966603,9.0178119 30.898167,8.877994 C 30.8298,8.7383176 30.737127,8.4990732 30.681383,8.3329617 C 30.617871,8.1437033 30.566329,8.0704192 30.555925,8.1426079 C 30.555925,8.1426079 30.555925,8.1426079 30.555925,8.1426079"
               style="fill:#000000" />
            <path
               id="path4161"
               d="M 28.678562,4.0704054 C 28.583,4.0605423 28.912794,5.1492582 29.074603,5.3677729 C 29.30012,5.6723201 29.34222,5.5492694 29.141652,5.1397246 C 29.031998,4.9158185 28.941172,4.6813173 28.952507,4.6280525 C 28.979658,4.5004686 28.773708,4.0802249 28.678562,4.0704054 C 28.678562,4.0704054 28.678562,4.0704054 28.678562,4.0704054"
               style="fill:#000000" />
            <path
               id="path4159"
               d="M 27.517035,1.0671583 C 27.364665,0.89227875 27.480205,1.8988343 27.657839,2.261753 C 27.893158,2.7425259 28.035234,2.7814408 27.855668,2.3159929 C 27.762815,2.0753137 27.656101,1.6999397 27.642733,1.5170767 C 27.629467,1.3356224 27.580246,1.1397078 27.517035,1.0671583 C 27.517035,1.0671583 27.517035,1.0671583 27.517035,1.0671583"
               style="fill:#000000" />
            <path
               id="path4157"
               d="M 24.536275,-6.2676487 C 24.456801,-6.3957419 24.456016,-6.3411538 24.502499,-6.149896 C 24.589708,-5.7910804 24.703658,-5.605217 24.683527,-5.8652958 C 24.675874,-5.9641545 24.605326,-6.1563556 24.536275,-6.2676487 C 24.536275,-6.2676487 24.536275,-6.2676487 24.536275,-6.2676487"
               style="fill:#000000" />
            <path
               id="path4155"
               d="M 23.880695,-8.9292963 C 23.78059,-9.1285154 23.75595,-9.1050236 23.757363,-8.8347214 C 23.758361,-8.6436954 23.810663,-8.3661376 23.88767,-8.210455 C 23.96477,-8.0545873 24.036424,-7.9170184 24.04691,-7.9119746 C 24.057389,-7.9069342 24.047332,-8.0841509 24.028744,-8.2968788 C 24.010332,-8.5075824 23.950666,-8.7900458 23.880695,-8.9292963 C 23.880695,-8.9292963 23.880695,-8.9292963 23.880695,-8.9292963"
               style="fill:#000000" />
            <path
               id="path3309"
               d="M 36.619446,8.6849956 C 36.619446,8.6849956 33.91679,2.2634842 33.91679,2.2634842 C 33.85982,2.1931502 33.797942,2.0768228 33.736482,2.070269 C 33.736482,2.070269 33.60352,2.0473024 33.60352,2.0473024 C 33.60352,2.0473024 32.640123,0.20811949 32.640123,0.20811949 C 31.199247,-2.5351274 29.732228,-5.0404421 28.385037,-7.0670113 C 26.361554,-10.110922 25.293295,-11.536022 23.041733,-14.196698 C 21.7201,-15.758476 20.582081,-16.991303 20.184907,-17.26926 C 19.920122,-17.454567 19.857792,-17.455163 19.861813,-17.234071 C 19.868476,-16.867663 20.356057,-15.769752 20.88701,-14.929698 C 21.099887,-14.592892 21.520273,-13.849916 21.827397,-13.276344 C 22.135245,-12.701422 22.47071,-12.095824 22.564323,-11.951063 C 22.661377,-11.800983 22.820813,-11.424753 22.940184,-11.058111 C 23.084245,-10.615638 23.243104,-10.246109 23.432491,-9.916031 C 23.432491,-9.916031 23.700007,-9.4513919 23.700007,-9.4513919 C 23.700007,-9.4513919 23.555658,-9.9070095 23.555658,-9.9070095 C 23.467307,-10.167718 23.374478,-10.475737 23.372481,-10.562659 C 23.370494,-10.649185 23.298951,-10.861392 23.206528,-11.042821 C 23.114217,-11.224034 22.696763,-12.083216 22.281989,-12.944858 C 21.667904,-14.220547 21.548715,-14.499861 21.605319,-14.532012 C 21.653222,-14.55922 21.627659,-14.651159 21.483468,-14.895694 C 21.191289,-15.391203 21.185715,-15.495048 21.496444,-15.173458 C 21.693892,-14.969107 21.775322,-14.9046 21.785401,-14.973414 C 21.817706,-15.193977 22.615728,-14.440919 23.508504,-13.347317 C 25.141425,-11.347079 25.811047,-10.447605 27.097755,-8.5702387 C 27.420818,-8.0988735 27.566771,-7.855553 27.721784,-7.5189881 C 27.90151,-7.1287696 27.949525,-7.0608218 28.158778,-6.8449627 C 28.397013,-6.5992077 29.234209,-5.3226128 29.494945,-4.8108318 C 29.562311,-4.6786032 29.789447,-4.3116539 29.998919,-4.0050843 C 31.080553,-2.4220808 33.261879,1.6993548 32.977828,1.6319703 C 32.933944,1.621559 32.693175,1.3389143 32.436416,0.99899149 C 32.177999,0.6568739 31.966564,0.3892146 31.970718,0.41852293 C 31.974877,0.44786986 32.271361,0.89945296 32.617721,1.3980912 C 33.470183,2.6253438 33.553958,2.8200968 33.07749,2.4309607 C 32.970321,2.3434342 32.86966,2.3021264 32.851715,2.334883 C 32.826179,2.3814945 32.904377,2.5070902 33.202944,2.8779249 C 33.656481,3.4412393 33.706451,3.5840323 33.329875,3.2476084 C 33.176854,3.1109026 33.020835,3.0096489 32.98969,3.0283388 C 32.951722,3.0511216 33.058927,3.1813459 33.294464,3.3904574 C 33.486529,3.5609743 33.75341,3.8136147 33.887716,3.9650744 C 33.887716,3.9650744 34.128797,4.2461573 34.128797,4.2461573 C 34.128797,4.2461573 34.207511,4.6357317 34.207511,4.6357317 C 34.248044,4.8482216 34.298413,5.0197976 34.325793,5.0221227 C 34.353098,5.0244404 34.361376,4.9644998 34.339772,4.894128 C 34.281834,4.705407 34.457844,4.7453576 34.531117,4.9364292 C 34.564802,5.0242704 34.805934,5.9024032 35.078749,6.9216548 C 35.642708,9.0286374 36.156069,10.805677 36.409268,11.552529 C 36.542207,11.944659 36.615223,12.106097 36.816101,12.407324 C 37.076133,12.797256 37.179356,12.76437 37.10578,12.319634 C 37.085768,12.198672 37.094311,12.08157 37.130206,12.07053 C 37.250053,12.03367 36.978727,10.24967 36.743377,9.4636051 C 36.606981,9.0080505 36.591128,8.7909387 36.619446,8.6849956 C 36.619446,8.6849956 36.619446,8.6849956 36.619446,8.6849956 M 35.628016,7.330186 C 35.687352,7.3838701 35.799756,7.5761608 35.962521,7.9133756 C 36.426758,8.8751794 36.531777,9.4768279 36.133667,8.9681435 C 35.929697,8.7075209 35.694274,8.1020229 35.601574,7.5872487 C 35.560285,7.3579679 35.568505,7.2763432 35.628016,7.330186 C 35.628016,7.330186 35.628016,7.330186 35.628016,7.330186"
               style="fill:#000000" />
          </g>
        </g>
      </g>
    </g>
  </g>
</svg>
